<svg id="Layer_9" data-name="Layer 9" xmlns="http://www.w3.org/2000/svg" xmlns:xlink="http://www.w3.org/1999/xlink" viewBox="0 0 300 110">
  <defs>
    <style>
      .cls-1 {
        fill: url(#linear-gradient);
      }

      .cls-2 {
        fill: url(#linear-gradient-9);
        stroke: url(#linear-gradient-10);
      }

      .cls-2, .cls-3, .cls-4, .cls-5, .cls-6 {
        stroke-miterlimit: 10;
        stroke-width: .742px;
      }

      .cls-7 {
        fill: #424241;
      }

      .cls-3 {
        fill: url(#linear-gradient-19);
        stroke: url(#linear-gradient-20);
      }

      .cls-4 {
        fill: url(#linear-gradient-17);
        stroke: url(#linear-gradient-18);
      }

      .cls-5 {
        fill: url(#linear-gradient-21);
        stroke: url(#linear-gradient-22);
      }

      .cls-6 {
        fill: url(#linear-gradient-11);
        stroke: url(#linear-gradient-12);
      }

      .cls-8 {
        fill: url(#linear-gradient-8);
      }

      .cls-9 {
        fill: url(#linear-gradient-3);
      }

      .cls-10 {
        fill: url(#linear-gradient-4);
      }

      .cls-11 {
        fill: url(#linear-gradient-2);
      }

      .cls-12 {
        fill: url(#linear-gradient-6);
      }

      .cls-13 {
        fill: url(#linear-gradient-7);
      }

      .cls-14 {
        fill: url(#linear-gradient-5);
      }

      .cls-15 {
        fill: url(#linear-gradient-14);
      }

      .cls-16 {
        fill: url(#linear-gradient-15);
      }

      .cls-17 {
        fill: url(#linear-gradient-16);
      }

      .cls-18 {
        fill: url(#linear-gradient-13);
      }
    </style>
    <linearGradient id="linear-gradient" x1="131.337" y1="68.656" x2="131.337" y2="27.316" gradientUnits="userSpaceOnUse">
      <stop offset="0" stop-color="#6e6e6e"/>
      <stop offset="1" stop-color="#fff"/>
    </linearGradient>
    <linearGradient id="linear-gradient-2" x1="131.337" y1="26.945" x2="131.337" y2="69.027" gradientUnits="userSpaceOnUse">
      <stop offset="0" stop-color="#ababab"/>
      <stop offset="1" stop-color="#fff"/>
    </linearGradient>
    <linearGradient id="linear-gradient-3" x1="167.326" y1="68.843" x2="167.326" y2="27.222" xlink:href="#linear-gradient"/>
    <linearGradient id="linear-gradient-4" x1="167.327" y1="26.851" x2="167.327" y2="69.215" xlink:href="#linear-gradient-2"/>
    <linearGradient id="linear-gradient-5" x1="204.805" x2="204.805" y2="27.284" xlink:href="#linear-gradient"/>
    <linearGradient id="linear-gradient-6" x1="204.805" y1="26.914" x2="204.805" xlink:href="#linear-gradient-2"/>
    <linearGradient id="linear-gradient-7" x1="236.335" y1="68.781" x2="236.335" y2="27.222" xlink:href="#linear-gradient"/>
    <linearGradient id="linear-gradient-8" x1="236.335" y1="26.851" x2="236.335" y2="69.152" xlink:href="#linear-gradient-2"/>
    <linearGradient id="linear-gradient-9" x1="258.685" y1="69.22" x2="258.685" y2="59.747" xlink:href="#linear-gradient"/>
    <linearGradient id="linear-gradient-10" x1="258.685" y1="59.376" x2="258.685" y2="69.591" xlink:href="#linear-gradient-2"/>
    <linearGradient id="linear-gradient-11" x1="278.647" y1="69.105" x2="278.647" y2="43.177" xlink:href="#linear-gradient"/>
    <linearGradient id="linear-gradient-12" x1="278.647" y1="42.807" x2="278.647" y2="69.476" xlink:href="#linear-gradient-2"/>
    <linearGradient id="linear-gradient-13" x1="168.783" y1="40.912" x2="168.783" y2="55.029" gradientUnits="userSpaceOnUse">
      <stop offset=".021" stop-color="#fff"/>
      <stop offset=".213" stop-color="#ffedcf"/>
      <stop offset=".646" stop-color="#e1cb8d"/>
      <stop offset=".809" stop-color="#cdaf7f"/>
      <stop offset=".997" stop-color="#b99471"/>
    </linearGradient>
    <linearGradient id="linear-gradient-14" x1="168.968" y1="55.672" x2="168.968" y2="40.27" gradientUnits="userSpaceOnUse">
      <stop offset=".213" stop-color="#ffedcf"/>
      <stop offset=".646" stop-color="#e1cb8d"/>
      <stop offset=".809" stop-color="#cdaf7f"/>
      <stop offset=".997" stop-color="#b99471"/>
    </linearGradient>
    <linearGradient id="linear-gradient-15" x1="21.635" y1="68.711" x2="21.635" y2="28.408" gradientUnits="userSpaceOnUse">
      <stop offset=".003" stop-color="#b99471"/>
      <stop offset=".191" stop-color="#cdaf7f"/>
      <stop offset=".354" stop-color="#e1cb8d"/>
      <stop offset=".787" stop-color="#ffedcf"/>
      <stop offset=".979" stop-color="#fff"/>
    </linearGradient>
    <linearGradient id="linear-gradient-16" x1="21.636" y1="69.082" x2="21.636" y2="28.037" xlink:href="#linear-gradient-14"/>
    <linearGradient id="linear-gradient-17" x1="48.98" x2="48.98" xlink:href="#linear-gradient-15"/>
    <linearGradient id="linear-gradient-18" x1="48.98" y1="69.082" x2="48.98" y2="28.035" xlink:href="#linear-gradient-14"/>
    <linearGradient id="linear-gradient-19" x1="70.86" x2="70.86" xlink:href="#linear-gradient-15"/>
    <linearGradient id="linear-gradient-20" x1="70.86" y1="69.082" x2="70.86" y2="28.037" xlink:href="#linear-gradient-14"/>
    <linearGradient id="linear-gradient-21" x1="99.967" x2="99.967" y2="28.401" xlink:href="#linear-gradient-15"/>
    <linearGradient id="linear-gradient-22" x1="99.967" y1="69.082" x2="99.967" y2="28.03" xlink:href="#linear-gradient-14"/>
  </defs>
  <path class="cls-7" d="m293.697,47.138c-2.694,0-5.147,1.827-5.961,4.43-.039.118-.077.238-.114.357l-.102-.329c-.817-2.666-3.274-4.458-6.116-4.458-.967,0-1.909.227-2.76.651-.666-.355-1.406-.574-2.186-.634-.565-3.084-3.24-5.425-6.446-5.425-3.41,0-6.225,2.622-6.559,5.971-1.941.907-3.25,2.819-3.25,5.082,0,2.218,1.311,4.143,3.216,5.079v1.253c-.98-.505-2.072-.816-3.244-.816-1.461,0-2.817.444-3.96,1.191v-14.24c0-2.864-.421-5.51-1.251-7.866-.855-2.418-2.115-4.516-3.748-6.237-1.635-1.723-3.637-3.068-5.949-3.998-2.27-.913-4.846-1.376-7.655-1.376-2.83,0-5.406.485-7.659,1.442-2.271.967-4.221,2.327-5.798,4.041-.979,1.065-1.801,2.278-2.493,3.595-.835-1.463-1.858-2.786-3.061-3.946-1.616-1.554-3.526-2.798-5.68-3.696-4.427-1.851-9.755-1.804-13.948.033-2.11.925-3.959,2.202-5.496,3.794-1.534,1.589-2.743,3.47-3.593,5.592-.092.23-.16.476-.242.713-1.049-1.73-2.329-3.327-3.802-4.749-1.473-1.417-3.135-2.645-4.939-3.649-1.79-.994-3.725-1.778-5.757-2.331-2.055-.558-4.218-.84-6.428-.84-3.312,0-6.474.613-9.401,1.823-2.906,1.204-5.489,2.886-7.677,5.002-.936.906-1.773,1.898-2.543,2.942-.896-1.609-2.01-3.067-3.333-4.34-1.706-1.644-3.725-2.956-5.999-3.9-4.611-1.916-10.168-1.892-14.577.014-2.205.953-4.149,2.278-5.779,3.942-.196.2-.37.418-.556.627-1.151-2.892-3.804-4.924-6.89-4.924h-19.169s-.024,0-.024,0l-3.445.018c-.889-.091-1.771.056-2.559.426-.501.235-.834.501-.986.621-1.977,1.552-2.329,3.913-2.391,4.865-.049.806.002,2.39.892,3.928.029.048.099.152.215.309v19.598c-.737-.261-1.51-.438-2.328-.438h-9.555v-20.236c0-4.589-3.041-8.366-7.136-8.965-.579-.106-1.103-.126-1.246-.128l-3.613.019c-.797-.048-1.568.101-2.353.464,0,0-.45.226-.906.583-.434.341-.777.724-1.069,1.118-1.099-1.018-2.45-1.736-3.961-2.025-.611-.129-1.168-.153-1.275-.157h-.169s-3.661.022-3.661.022c-.754-.042-1.495.104-2.261.455,0,0-.46.231-.913.587-.649.51-1.11,1.106-1.455,1.709-1.818-1.724-4.182-2.775-6.772-2.775-3.594,0-6.99,2.119-8.866,5.536l-3.523,6.461-3.492-6.457c-1.829-3.365-5.309-5.54-8.868-5.54-.087,0-.174.004-.261.012-.136-.008-.238-.011-.303-.012l-4.279.02c-1.013-.058-1.994.143-2.83.575-.189.094-.569.305-.991.651-.518.426-2.219,2.02-2.396,4.662-.044.633-.039,2.191.841,3.718-.092.583-.136,1.139-.136,1.694v25.399c0,4.861,3.685,8.816,8.215,8.816,4.56,0,8.268-3.982,8.268-8.875v-4.722l.964,1.503c1.131,1.833,3.116,2.971,5.18,2.971,2.162,0,4.117-1.163,5.234-3.126.271-.484.579-1.028.909-1.608v4.862c0,4.96,3.754,8.994,8.369,8.994,2.638,0,4.965-1.36,6.49-3.436,1.535,2.078,3.863,3.436,6.501,3.436,2.748,0,5.169-1.466,6.696-3.694,1.527,2.229,3.949,3.694,6.697,3.694h17.924c2.02,0,3.849-.879,5.199-2.292,1.475,1.409,3.385,2.292,5.499,2.292,4.614,0,8.369-4.079,8.369-9.092v-4.343h6.652c2.861,0,5.253-1.77,6.348-4.362v10.789c0,.953.186,1.87.553,2.735.363.843.88,1.595,1.546,2.238.645.622,1.396,1.111,2.225,1.453.846.349,1.766.526,2.735.526.976,0,1.895-.18,2.738-.534.85-.359,1.595-.872,2.217-1.522.615-.642,1.093-1.4,1.423-2.251.322-.829.485-1.721.485-2.591l.075-3.436c1.314.414,2.731.623,4.219.623,2.563,0,5.021-.482,7.31-1.431,2.27-.942,4.286-2.247,5.993-3.878.087-.083.162-.175.247-.26.15.401.283.809.457,1.202,1.248,2.817,2.985,5.315,5.161,7.424,2.173,2.103,4.754,3.786,7.676,5.002,2.935,1.22,6.106,1.839,9.421,1.839s6.486-.619,9.421-1.84c2.918-1.214,5.505-2.895,7.684-4.995,1.029-.991,1.956-2.075,2.791-3.232v2.924c0,.955.186,1.873.55,2.728.363.851.884,1.608,1.548,2.246.644.622,1.393,1.112,2.229,1.457.846.348,1.766.524,2.733.524.974,0,1.893-.18,2.733-.533.851-.358,1.599-.872,2.225-1.527.615-.644,1.091-1.4,1.42-2.247.322-.829.485-1.721.485-2.594l.037-1.841,6.799,6.48c.705.679,1.51,1.196,2.387,1.535,1.767.692,3.725.671,5.408-.042.834-.352,1.577-.839,2.208-1.449.35-.338.652-.715.922-1.115.334.57.721,1.104,1.215,1.556.635.579,1.369,1.042,2.176,1.375,1.669.688,3.71.706,5.435.007.831-.336,1.573-.801,2.215-1.388.678-.621,1.207-1.36,1.573-2.185.378-.844.569-1.765.569-2.739v-20.452c0-2.203.397-3.85,1.117-4.636.686-.751,1.737-1.116,3.21-1.116,1.875,0,2.653.694,3.075,1.214.787.974,1.185,2.49,1.185,4.507v20.483c0,.993.204,1.929.603,2.776.38.812.896,1.528,1.543,2.134.633.592,1.377,1.062,2.212,1.4.85.345,1.759.519,2.702.519.935,0,1.842-.172,2.699-.512.85-.337,1.606-.811,2.253-1.414.144-.135.257-.295.388-.441,1.341,1.695,3.39,2.805,5.711,2.805s4.374-1.134,5.7-2.861c1.706,1.777,4.249,2.746,7.535,2.746,4.727,0,6.765-1.789,7.631-3.498,1.522,2.061,3.906,3.345,6.438,3.345,3.167,0,6.147-2.106,7.413-5.241l4.703-11.64c.276-.771.405-1.491.405-2.265,0-3.496-2.886-6.451-6.303-6.451Zm-16.189,13.981c-.301-.066-.615-.108-.94-.126v-2.297l.94,2.423Zm-111.903-21.205c.998-.307,2.038-.51,3.142-.51,1.457,0,2.777.255,4.035.781,1.258.527,2.368,1.247,3.296,2.14.923.89,1.665,1.944,2.207,3.133.312.688.519,1.403.645,2.149l-13.325-7.694Zm-4.096,16.356c-.033-.031-.076-.054-.109-.086-.919-.885-1.626-1.905-2.162-3.123-.528-1.194-.783-2.451-.783-3.846,0-1.368.254-2.602.778-3.773.531-1.186,1.262-2.237,2.176-3.125.03-.03.07-.051.1-.08v14.032Zm17.451-5.62c-.12.837-.338,1.633-.682,2.398-.545,1.218-1.262,2.241-2.19,3.127-.928.885-2.036,1.595-3.295,2.112-2.284.94-5.032.978-7.415.203l13.581-7.841Zm-41.212-6.398c0,.623-.124,1.196-.38,1.755-.272.597-.628,1.102-1.088,1.543-.463.445-.991.788-1.614,1.05-1.2.504-2.597.498-3.753.014-.603-.252-1.102-.574-1.532-.988-.419-.402-.746-.872-1.001-1.438-.237-.524-.352-1.076-.352-1.687,0-.648.129-1.283.395-1.942.254-.63.567-1.119.959-1.496.431-.414.931-.736,1.531-.987.581-.243,1.188-.36,1.863-.36.715,0,1.374.112,2.013.344.616.223,1.136.523,1.587.916.4.349.719.805.972,1.394.271.624.402,1.24.402,1.881Zm71.237,1.394c-.334.326-.717.579-1.173.774-.87.372-1.904.362-2.717.015-.439-.187-.8-.424-1.105-.722-.305-.301-.538-.644-.717-1.056-.17-.389-.252-.798-.252-1.25,0-.47.097-.949.296-1.467.174-.453.4-.818.673-1.087.296-.291.649-.518,1.074-.693.421-.173.87-.257,1.374-.257.543,0,1.04.083,1.519.254.441.157.809.369,1.125.65.267.237.487.564.673.998.198.469.295.931.295,1.415,0,.461-.087.879-.267,1.273-.206.453-.467.829-.797,1.153Zm6.816,11.432c.243-.139.484-.282.72-.43,1.048-.656,1.976-1.442,2.84-2.287v6.092l-3.56-3.375Zm-107.914-13.205h-6.652v-.647h10.727c.824,0,1.604-.18,2.346-.447-.042.552-.073,1.109-.073,1.679v3.898c-1.105-2.637-3.527-4.483-6.348-4.483Z"/>
  <g>
    <g>
      <path class="cls-1" d="m115.397,43.29c0-2.35.389-4.476,1.168-6.38.778-1.904,1.865-3.567,3.26-4.992s3.044-2.548,4.946-3.37,3.978-1.232,6.227-1.232c2.226,0,4.33.41,6.308,1.232s3.709,1.945,5.189,3.369c1.48,1.425,2.648,3.088,3.503,4.991.855,1.902,1.281,4.029,1.281,6.379,0,2.162-.426,4.195-1.281,6.099-.855,1.902-2.022,3.561-3.503,4.975s-3.211,2.532-5.189,3.353c-1.978.822-4.082,1.232-6.308,1.232-1.297,0-2.502-.187-3.616-.562s-2.157-.863-3.13-1.468l-.162,7.4c0,.604-.102,1.171-.308,1.702s-.498.995-.876,1.389c-.378.396-.827.703-1.346.921s-1.091.328-1.719.328-1.205-.109-1.735-.328-1.001-.525-1.411-.92c-.41-.396-.73-.858-.957-1.388s-.341-1.097-.341-1.701v-21.029Zm15.925,7.131c1.017,0,1.983-.192,2.903-.578.92-.385,1.724-.91,2.416-1.577.693-.666,1.244-1.446,1.654-2.342.41-.894.616-1.842.616-2.841s-.206-1.972-.616-2.919c-.41-.947-.961-1.722-1.654-2.326-.693-.603-1.497-1.072-2.416-1.405-.92-.332-1.886-.5-2.903-.5s-1.974.187-2.87.562-1.675.88-2.335,1.514c-.66.636-1.184,1.436-1.573,2.404s-.584,1.941-.584,2.919.195,1.9.584,2.763c.389.864.913,1.614,1.573,2.248.66.636,1.439,1.14,2.335,1.514s1.853.562,2.87.562Z"/>
      <path class="cls-11" d="m119.84,69.027c-.673,0-1.304-.12-1.877-.356-.571-.235-1.085-.57-1.526-.995-.445-.43-.796-.938-1.041-1.509-.245-.576-.37-1.197-.37-1.848v-21.029c0-2.388.402-4.582,1.195-6.52.792-1.938,1.915-3.658,3.338-5.112,1.421-1.452,3.125-2.613,5.063-3.451s4.082-1.263,6.374-1.263c2.268,0,4.438.424,6.451,1.261,2.013.836,3.797,1.995,5.304,3.444,1.508,1.451,2.714,3.169,3.584,5.106.871,1.939,1.313,4.137,1.313,6.531,0,2.207-.442,4.31-1.313,6.25-.871,1.939-2.077,3.651-3.585,5.091-1.507,1.438-3.291,2.592-5.303,3.428-2.015.836-4.185,1.26-6.451,1.26-1.333,0-2.589-.195-3.734-.581-.929-.312-1.819-.708-2.655-1.178l-.147,6.767c0,.642-.112,1.26-.333,1.828-.224.575-.544,1.084-.954,1.512-.41.429-.904.768-1.469,1.006-.563.237-1.19.357-1.863.357Zm11.156-41.341c-2.189,0-4.235.405-6.079,1.202-1.851.799-3.476,1.906-4.829,3.289-1.355,1.385-2.426,3.025-3.182,4.874-.756,1.849-1.139,3.948-1.139,6.239v21.029c0,.55.104,1.073.31,1.556.206.479.5.906.874,1.267.374.359.81.644,1.295.844.964.398,2.225.399,3.169,0,.47-.198.881-.479,1.222-.835.342-.357.61-.784.798-1.268.188-.482.282-1.01.282-1.567l.177-8.059.552.343c.943.586,1.971,1.067,3.053,1.432,1.069.36,2.246.542,3.498.542,2.169,0,4.243-.404,6.166-1.203,1.928-.8,3.636-1.903,5.076-3.279,1.438-1.373,2.589-3.008,3.421-4.858.827-1.845,1.247-3.845,1.247-5.947,0-2.289-.42-4.384-1.247-6.227-.832-1.85-1.983-3.491-3.422-4.876-1.44-1.385-3.147-2.493-5.075-3.293-1.922-.799-3.997-1.204-6.166-1.204Zm.324,23.105c-1.062,0-2.076-.198-3.014-.59-.936-.391-1.76-.926-2.448-1.589-.69-.663-1.246-1.458-1.654-2.363-.409-.909-.617-1.89-.617-2.916,0-1.02.206-2.049.611-3.058.407-1.013.966-1.866,1.66-2.533.69-.664,1.514-1.199,2.448-1.59,1.867-.779,4.114-.765,6.043-.069.957.347,1.809.843,2.533,1.475.732.639,1.321,1.466,1.751,2.458.43.992.647,2.023.647,3.067s-.219,2.055-.65,2.996c-.428.934-1.011,1.76-1.734,2.455-.722.696-1.573,1.251-2.529,1.652-.959.402-1.983.606-3.047.606Zm0-14.488c-.963,0-1.88.18-2.728.534-.85.355-1.597.84-2.221,1.439-.618.595-1.118,1.36-1.486,2.275-.369.921-.557,1.856-.557,2.781,0,.92.186,1.798.551,2.611.369.818.871,1.536,1.492,2.133.623.599,1.37,1.083,2.221,1.439,1.693.708,3.753.713,5.487-.015.872-.365,1.646-.87,2.303-1.502.656-.631,1.186-1.38,1.574-2.229.387-.843.582-1.747.582-2.687s-.196-1.874-.585-2.772c-.386-.89-.91-1.628-1.559-2.194-.655-.571-1.429-1.021-2.298-1.336-.878-.317-1.812-.478-2.777-.478Z"/>
    </g>
    <g>
      <path class="cls-9" d="m167.262,68.843c-2.984,0-5.789-.546-8.416-1.639-2.627-1.093-4.914-2.58-6.86-4.465-1.946-1.883-3.475-4.085-4.589-6.604-1.114-2.518-1.67-5.214-1.67-8.087s.556-5.573,1.67-8.103c1.114-2.529,2.648-4.74,4.605-6.635,1.958-1.894,4.244-3.382,6.86-4.465,2.615-1.082,5.416-1.624,8.4-1.624,1.99,0,3.904.25,5.741.749s3.563,1.198,5.173,2.092c1.61.895,3.077,1.978,4.395,3.247,1.318,1.27,2.449,2.681,3.389,4.231.941,1.551,1.67,3.212,2.189,4.98.519,1.77.778,3.612.778,5.527,0,2.873-.572,5.569-1.719,8.087-1.147,2.519-2.697,4.72-4.654,6.604-1.958,1.885-4.249,3.372-6.876,4.465s-5.433,1.639-8.416,1.639Zm.032-8.337c1.795,0,3.475-.322,5.043-.968,1.568-.645,2.935-1.524,4.103-2.638,1.168-1.113,2.092-2.43,2.773-3.95.681-1.519,1.022-3.154,1.022-4.902,0-1.727-.341-3.341-1.022-4.84s-1.605-2.81-2.773-3.934-2.534-2.014-4.103-2.67-3.248-.984-5.043-.984-3.482.328-5.06.984-2.947,1.546-4.103,2.67-2.071,2.435-2.741,3.934-1.005,3.112-1.005,4.84c0,1.749.336,3.383,1.005,4.902.67,1.52,1.585,2.837,2.741,3.95,1.156,1.114,2.525,1.994,4.103,2.638,1.578.646,3.264.968,5.06.968Z"/>
      <path class="cls-10" d="m167.261,69.215c-3.019,0-5.897-.562-8.559-1.668-2.659-1.106-5.006-2.635-6.975-4.541-1.971-1.907-3.542-4.168-4.671-6.72-1.129-2.553-1.702-5.324-1.702-8.238s.572-5.689,1.702-8.252c1.129-2.562,2.705-4.834,4.687-6.752,1.983-1.918,4.331-3.446,6.977-4.542,2.65-1.096,5.523-1.651,8.541-1.651,2.014,0,3.978.256,5.839.762,1.855.505,3.624,1.22,5.255,2.125,1.633.908,3.137,2.02,4.472,3.305,1.337,1.288,2.498,2.736,3.45,4.305.951,1.57,1.701,3.275,2.228,5.068.526,1.796.794,3.691.794,5.631,0,2.916-.59,5.688-1.754,8.241-1.161,2.552-2.754,4.812-4.733,6.718-1.98,1.906-4.333,3.435-6.99,4.54-2.661,1.106-5.541,1.668-8.56,1.668Zm0-41.622c-2.92,0-5.698.537-8.258,1.596-2.559,1.059-4.828,2.536-6.744,4.389-1.912,1.851-3.434,4.043-4.524,6.518-1.087,2.468-1.638,5.144-1.638,7.953s.551,5.48,1.638,7.937c1.09,2.465,2.607,4.646,4.509,6.487,1.902,1.842,4.171,3.319,6.744,4.389,2.57,1.069,5.354,1.611,8.273,1.611s5.704-.542,8.274-1.611c2.572-1.069,4.847-2.546,6.762-4.39,1.911-1.84,3.45-4.023,4.572-6.489,1.119-2.456,1.687-5.126,1.687-7.934,0-1.869-.257-3.694-.763-5.422-.509-1.731-1.232-3.377-2.151-4.893-.918-1.514-2.039-2.913-3.329-4.156-1.289-1.241-2.742-2.314-4.318-3.19-1.578-.876-3.291-1.569-5.09-2.058-1.797-.489-3.695-.737-5.644-.737Zm.033,33.285c-1.837,0-3.586-.335-5.2-.996-1.615-.659-3.036-1.573-4.22-2.715-1.188-1.143-2.137-2.511-2.822-4.066-.688-1.562-1.038-3.261-1.038-5.052,0-1.771.35-3.45,1.038-4.991.685-1.532,1.634-2.894,2.82-4.048,1.184-1.151,2.603-2.075,4.22-2.747,3.229-1.342,7.175-1.343,10.388,0,1.604.671,3.022,1.594,4.217,2.745,1.195,1.15,2.156,2.512,2.854,4.048.699,1.541,1.055,3.221,1.055,4.993,0,1.792-.354,3.494-1.055,5.054-.699,1.56-1.66,2.928-2.855,4.066-1.195,1.142-2.614,2.055-4.218,2.713-1.604.661-3.349.996-5.184.996Zm0-24.886c-1.739,0-3.394.321-4.917.955-1.53.636-2.872,1.508-3.987,2.593-1.119,1.089-2.015,2.374-2.66,3.82-.646,1.445-.974,3.022-.974,4.688,0,1.688.327,3.287.974,4.753.647,1.467,1.541,2.756,2.658,3.831,1.117,1.076,2.458,1.938,3.987,2.563,3.046,1.244,6.787,1.25,9.821,0,1.517-.624,2.858-1.486,3.987-2.564,1.126-1.072,2.031-2.361,2.691-3.832.656-1.466.988-3.064.988-4.751,0-1.666-.332-3.242-.988-4.686-.659-1.45-1.564-2.735-2.692-3.82-1.128-1.087-2.471-1.96-3.988-2.595-1.516-.634-3.164-.955-4.9-.955Z"/>
    </g>
    <g>
      <path class="cls-14" d="m189.772,43.646v-.281c0-.207.021-.364.065-.468-.044-.083-.065-.197-.065-.343,0-2.268.361-4.309,1.084-6.12.725-1.811,1.74-3.392,3.046-4.746,1.307-1.353,2.861-2.424,4.666-3.216,1.802-.791,3.785-1.187,5.945-1.187,2.097,0,4.077.39,5.945,1.171,1.87.781,3.493,1.838,4.877,3.169,1.383,1.333,2.479,2.899,3.287,4.699.811,1.801,1.216,3.815,1.216,6.042,0,1.645-.259,3.149-.778,4.512-.519,1.364-1.237,2.576-2.154,3.638s-1.992,1.978-3.222,2.748c-1.232.771-2.56,1.385-3.985,1.842l6.487,6.151c.41.396.714.849.908,1.358.195.511.292,1.036.292,1.577,0,.583-.114,1.13-.341,1.639-.227.511-.542.958-.941,1.343-.401.386-.871.692-1.411.921-.542.23-1.114.343-1.719.343-.584,0-1.158-.109-1.719-.328-.563-.219-1.07-.546-1.524-.984l-11.104-10.585-.162,7.775c0,.604-.102,1.171-.308,1.702s-.498.995-.876,1.389c-.378.396-.827.703-1.346.921s-1.091.328-1.719.328-1.205-.109-1.735-.328-1.001-.525-1.411-.921c-.41-.395-.73-.859-.957-1.389s-.341-1.097-.341-1.702v-20.67Zm15.211,4.496c.843,0,1.642-.161,2.4-.484.758-.322,1.415-.759,1.978-1.311.563-.551,1.01-1.197,1.346-1.936.336-.738.503-1.524.503-2.357s-.167-1.644-.503-2.435c-.336-.791-.783-1.436-1.346-1.936s-1.221-.884-1.978-1.155c-.758-.27-1.557-.406-2.4-.406s-1.633.152-2.368.453c-.734.302-1.374.718-1.914,1.249s-.968,1.202-1.281,2.014-.47,1.614-.47,2.404c0,.812.158,1.577.47,2.295s.741,1.343,1.281,1.873,1.179.952,1.914,1.265,1.524.468,2.368.468Z"/>
      <path class="cls-12" d="m194.215,69.027c-.672,0-1.303-.12-1.876-.356-.571-.235-1.085-.57-1.527-.997-.443-.427-.794-.936-1.04-1.511s-.371-1.197-.371-1.847v-20.952c0-.179.015-.33.045-.455-.03-.104-.045-.222-.045-.356,0-2.304.374-4.41,1.111-6.257.74-1.848,1.791-3.485,3.124-4.866s2.942-2.491,4.783-3.298c1.843-.808,3.894-1.218,6.094-1.218,2.136,0,4.184.403,6.087,1.199,1.9.793,3.579,1.885,4.991,3.245,1.41,1.359,2.544,2.979,3.368,4.814.829,1.84,1.249,3.924,1.249,6.193,0,1.685-.271,3.247-.803,4.644-.531,1.397-1.278,2.658-2.221,3.748-.937,1.084-2.049,2.032-3.307,2.819-1.082.677-2.251,1.241-3.479,1.682l6.04,5.728c.452.438.788.939,1,1.496.21.549.316,1.124.316,1.709,0,.633-.125,1.235-.372,1.789-.245.549-.589,1.04-1.022,1.459-.43.414-.942.749-1.522.996-1.146.485-2.493.497-3.719.02-.604-.234-1.158-.592-1.646-1.062l-10.493-10.003-.145,6.935c0,.642-.112,1.26-.333,1.828-.224.575-.544,1.084-.954,1.512-.41.429-.904.768-1.469,1.006-.563.237-1.19.357-1.864.357Zm10.298-41.372c-2.098,0-4.047.389-5.796,1.155-1.752.769-3.282,1.824-4.548,3.134-1.266,1.312-2.265,2.868-2.969,4.626-.702,1.76-1.058,3.773-1.058,5.982,0,.126.021.168.021.169l.083.155-.068.162c-.009.021-.036.105-.036.325v20.952c0,.549.104,1.072.311,1.556.207.483.501.91.873,1.268.375.361.811.646,1.296.846.965.398,2.226.397,3.169,0,.47-.198.881-.479,1.222-.835.342-.357.61-.784.798-1.268.188-.482.282-1.01.282-1.567l.18-8.624,11.713,11.165c.419.403.89.708,1.402.906,1.049.409,2.193.398,3.16-.011.496-.211.934-.496,1.298-.847.364-.353.654-.766.859-1.228.204-.458.308-.959.308-1.487,0-.494-.09-.98-.268-1.444-.173-.454-.448-.866-.819-1.225l-6.938-6.578.596-.191c1.387-.446,2.699-1.054,3.901-1.805,1.194-.747,2.25-1.647,3.139-2.675.885-1.024,1.588-2.211,2.088-3.528.501-1.312.754-2.786.754-4.38,0-2.164-.397-4.145-1.183-5.889-.786-1.75-1.865-3.292-3.206-4.584-1.346-1.295-2.948-2.337-4.763-3.094-1.813-.758-3.765-1.143-5.802-1.143Zm.471,20.857c-.892,0-1.737-.167-2.514-.498s-1.459-.782-2.027-1.342c-.574-.564-1.032-1.234-1.361-1.99-.333-.764-.502-1.586-.502-2.443,0-.83.167-1.683.496-2.537.329-.855.789-1.577,1.367-2.146.568-.56,1.252-1.006,2.031-1.327,1.552-.635,3.435-.623,5.033-.053.799.285,1.505.698,2.101,1.227.599.53,1.083,1.226,1.44,2.068.354.833.533,1.701.533,2.581,0,.884-.181,1.729-.536,2.511-.355.782-.835,1.471-1.425,2.047-.593.583-1.297,1.049-2.092,1.388-.798.34-1.654.513-2.545.513Zm0-12.021c-.79,0-1.539.143-2.228.425-.689.284-1.293.677-1.794,1.17-.502.494-.904,1.127-1.195,1.883-.296.769-.445,1.532-.445,2.271,0,.754.147,1.477.439,2.147.291.668.695,1.259,1.201,1.757.503.495,1.107.895,1.798,1.188,1.369.582,3.064.588,4.478-.015.71-.302,1.337-.718,1.864-1.235.524-.512.95-1.126,1.268-1.824.312-.685.47-1.427.47-2.204s-.159-1.55-.473-2.291c-.314-.74-.735-1.347-1.251-1.804-.524-.466-1.149-.831-1.857-1.083-.716-.255-1.48-.384-2.274-.384Z"/>
    </g>
    <g>
      <path class="cls-13" d="m220.524,43.552c0-2.352.352-4.527,1.054-6.526s1.719-3.72,3.049-5.168c1.33-1.446,2.963-2.58,4.897-3.403,1.934-.822,4.147-1.233,6.633-1.233s4.714.396,6.681,1.187c1.967.792,3.644,1.916,5.027,3.372,1.383,1.457,2.444,3.227,3.178,5.308.734,2.082,1.103,4.414,1.103,6.994v20.483c0,.604-.118,1.161-.357,1.67-.239.511-.556.952-.957,1.327s-.876.671-1.427.89-1.131.328-1.735.328-1.179-.109-1.719-.328-1.01-.515-1.411-.89-.718-.816-.957-1.327c-.239-.51-.357-1.066-.357-1.67v-20.483c0-2.643-.588-4.694-1.768-6.151-1.179-1.456-2.882-2.186-5.108-2.186s-3.941.656-5.141,1.967-1.8,3.446-1.8,6.401v20.452c0,.604-.114,1.161-.341,1.67-.227.511-.547.952-.957,1.327s-.887.671-1.427.89-1.114.328-1.719.328c-.628,0-1.205-.109-1.735-.328s-1.001-.515-1.411-.89-.73-.816-.957-1.327c-.227-.51-.341-1.066-.341-1.67v-21.014Z"/>
      <path class="cls-8" d="m247.67,69.152c-.651,0-1.277-.12-1.859-.355-.581-.236-1.094-.56-1.524-.963-.432-.403-.781-.889-1.039-1.44-.26-.556-.392-1.17-.392-1.827v-20.483c0-2.544-.566-4.535-1.685-5.918-1.116-1.378-2.693-2.048-4.82-2.048-2.108,0-3.746.622-4.867,1.847-1.13,1.234-1.702,3.304-1.702,6.15v20.452c0,.651-.126,1.264-.373,1.82-.247.554-.599,1.041-1.046,1.45-.438.401-.956.725-1.537.96-1.183.479-2.606.464-3.735,0-.569-.235-1.081-.558-1.52-.959-.447-.409-.8-.896-1.046-1.449-.247-.556-.372-1.168-.372-1.821v-21.014c0-2.382.362-4.619,1.075-6.649.715-2.034,1.767-3.816,3.125-5.295,1.359-1.478,3.05-2.653,5.025-3.494,1.974-.838,4.254-1.263,6.778-1.263s4.816.408,6.819,1.213c2.01.81,3.745,1.974,5.157,3.461,1.416,1.492,2.512,3.322,3.26,5.44.746,2.114,1.124,4.509,1.124,7.118v20.483c0,.657-.133,1.272-.393,1.827-.258.552-.606,1.036-1.038,1.44-.434.405-.953.729-1.545.964-.592.235-1.222.354-1.871.354Zm-11.319-33.776c2.332,0,4.148.781,5.396,2.323,1.228,1.518,1.851,3.666,1.851,6.384v20.483c0,.548.107,1.057.321,1.513.221.473.507.87.874,1.214.364.34.8.615,1.297.816.984.4,2.168.399,3.178,0,.505-.2.946-.475,1.312-.815.367-.345.652-.741.873-1.214.214-.456.322-.965.322-1.513v-20.483c0-2.525-.363-4.836-1.081-6.871-.713-2.02-1.755-3.761-3.098-5.176-1.339-1.409-2.986-2.514-4.897-3.284-1.914-.77-4.115-1.16-6.542-1.16s-4.607.405-6.488,1.204c-1.878.799-3.482,1.914-4.77,3.313-1.29,1.405-2.29,3.1-2.972,5.04-.686,1.95-1.032,4.104-1.032,6.403v21.014c0,.549.104,1.06.308,1.52.204.459.497.864.868,1.204.375.343.813.618,1.303.82.947.392,2.17.406,3.173,0,.5-.202.942-.478,1.316-.819.371-.34.664-.745.868-1.205.205-.46.309-.972.309-1.519v-20.452c0-3.038.639-5.275,1.897-6.651,1.268-1.385,3.089-2.087,5.414-2.087Z"/>
    </g>
  </g>
  <g>
    <path class="cls-2" d="m258.721,59.747c-2.603,0-4.701,2.109-4.701,4.756s2.098,4.717,4.701,4.717c2.568,0,4.628-2.071,4.628-4.717s-2.06-4.756-4.628-4.756Z"/>
    <path class="cls-6" d="m292.244,48.586c-1.591,0-3.002,1.112-3.471,2.608-.941,2.953-1.953,5.983-2.641,8.246l-2.567-8.246c-.47-1.534-1.916-2.608-3.616-2.608-1.192,0-2.196.577-2.871,1.413-.518-.858-1.438-1.413-2.519-1.413h-2.06v-1.381c0-2.186-1.772-4.028-3.941-4.028-2.205,0-3.978,1.841-3.978,4.028v1.381c-1.771,0-3.217,1.304-3.217,3.03,0,1.688,1.446,3.069,3.217,3.069v7.287c0,4.871,2.532,7.133,7.376,7.133,2.35,0,5.641-.537,5.641-3.528,0-1.726-.868-3.145-2.821-3.145-1.482,0-2.278-.614-2.278-2.34v-5.408h2.06c.76,0,1.437-.298,1.956-.772l4.411,11.358c.868,2.263,3.001,3.682,5.098,3.682,2.133,0,4.122-1.457,4.99-3.605l4.664-11.544c.18-.498.253-.921.253-1.381,0-1.995-1.627-3.835-3.688-3.835Z"/>
  </g>
  <g>
    <polygon class="cls-18" points="162.671 47.97 162.671 40.912 168.783 44.441 174.896 47.97 168.783 51.499 162.671 55.029 162.671 47.97"/>
    <path class="cls-15" d="m162.299,55.672v-15.402l13.338,7.701-13.338,7.701Zm.742-14.118v12.833l11.113-6.416-11.113-6.417Z"/>
  </g>
  <g>
    <path class="cls-16" d="m34.369,28.408c-2.699,0-5.195,1.669-6.569,4.173l-4.584,8.406c-.814,1.491-1.221,2.326-1.221,2.326l-5.806-10.732c-1.425-2.623-4.073-4.173-6.569-4.173-.068,0-.131.021-.199.023-.207-.018-.354-.023-.354-.023-1.458.007-2.916.013-4.374.02-.338-.027-.949-.025-1.577.299-.051.026-.261.137-.498.331-.509.419-1.355,1.402-1.45,2.823-.011.172-.092,1.384.644,2.461.036.053.166.195.393.433-.189.748-.324,1.521-.324,2.337v25.399c0,3.518,2.546,6.2,5.6,6.2,3.157,0,5.653-2.802,5.653-6.26v-13.653l5.804,9.062c.662,1.074,1.783,1.729,2.954,1.729,1.272,0,2.341-.715,2.952-1.789,1.936-3.458,5.806-10.076,5.806-10.076v14.607c0,3.517,2.546,6.379,5.753,6.379,3.157,0,5.704-2.862,5.704-6.379v-25.22c0-4.769-3.463-8.704-7.74-8.704Z"/>
    <path class="cls-17" d="m36.406,69.082c-3.377,0-6.125-3.028-6.125-6.75v-13.236c-1.203,2.066-3.691,6.35-5.111,8.885-.706,1.24-1.93,1.979-3.275,1.979-1.292,0-2.545-.73-3.27-1.905l-5.118-7.99v12.387c0,3.656-2.703,6.631-6.024,6.631-3.348,0-5.971-2.887-5.971-6.571v-25.399c0-.7.092-1.413.286-2.229-.163-.175-.259-.285-.29-.331-.731-1.07-.738-2.242-.708-2.696.117-1.749,1.242-2.802,1.584-3.083.176-.144.375-.277.562-.375.53-.273,1.14-.392,1.778-.339l4.342-.021c.016,0,.17.006.388.024.057-.017.111-.024.167-.024,2.747,0,5.453,1.714,6.896,4.367l5.469,10.11c.204-.397.507-.972.906-1.704l4.584-8.406c1.479-2.693,4.12-4.366,6.895-4.366,4.473,0,8.111,4.071,8.111,9.075v25.22c0,3.722-2.726,6.75-6.075,6.75Zm-5.383-22.726v15.976c0,3.312,2.414,6.008,5.383,6.008,2.94,0,5.333-2.695,5.333-6.008v-25.22c0-4.595-3.306-8.333-7.369-8.333-2.504,0-4.896,1.525-6.244,3.981l-4.584,8.406c-.806,1.477-1.21,2.306-1.213,2.311l-.315.648-6.149-11.367c-1.313-2.417-3.765-3.979-6.243-3.979-.09.015-.139.021-.188.023-.236-.018-.375-.023-.379-.023l-4.358.02c-.529-.041-1.003.048-1.409.258-.082.042-.248.137-.433.289-.202.166-1.215,1.071-1.314,2.561-.021.295-.038,1.324.579,2.227.038.051.157.178.355.387l.141.148-.05.198c-.213.839-.312,1.553-.312,2.246v25.399c0,3.269,2.297,5.829,5.229,5.829,2.913,0,5.282-2.642,5.282-5.889v-14.919l6.488,10.128c.594.963,1.604,1.558,2.642,1.558,1.076,0,2.059-.598,2.63-1.601,1.914-3.419,5.77-10.013,5.808-10.079l.691-1.182Z"/>
  </g>
  <path class="cls-4" d="m50.358,28.515c-.428-.093-.849-.107-.849-.107-.036,0-.071,0-.107,0-.002,0-.003,0-.005,0-.002,0-.004,0-.006,0l-3.75.02c-.207-.01-.565.001-.949.176,0,0-.242.123-.48.31-1.228.966-1.373,2.594-1.395,2.966-.019.31-.054,1.426.545,2.461.028.049.129.179.294.385-.001.054-.014.104-.014.158v27.349c0,3.598,2.547,6.477,5.755,6.477s5.753-2.879,5.753-6.477v-27.349c0-3.229-2.055-5.859-4.793-6.37Z"/>
  <path class="cls-3" d="m80.715,57.735h-12.171v-22.851c0-3.307-2.158-5.977-4.996-6.392-.383-.071-.73-.085-.73-.085h-.028c-1.236.007-2.473.013-3.709.02-.239-.021-.647-.021-1.079.177,0,0-.241.122-.48.31-1.228.966-1.373,2.594-1.395,2.966-.019.31-.054,1.426.545,2.461.032.056.158.217.37.48,0,.022-.006.042-.006.064v27.349c0,3.598,2.547,6.477,5.755,6.477h17.924c2.699,0,4.888-2.459,4.888-5.518,0-2.998-2.19-5.458-4.888-5.458Z"/>
  <path class="cls-5" d="m106.434,45.321h-9.268v-5.878h13.342c2.699,0,4.888-2.46,4.888-5.518s-2.19-5.518-4.888-5.518h-19.096c-.021,0-.039.006-.06.007-.066-.004-.115-.007-.115-.007-1.171.006-2.342.012-3.514.019-.267-.038-.774-.069-1.303.178-.243.114-.4.247-.48.31-1.228.966-1.373,2.594-1.395,2.966-.019.31-.054,1.426.545,2.461.041.071.232.311.566.721v27.172c0,3.598,2.547,6.477,5.755,6.477s5.753-2.879,5.753-6.477v-6.958h9.268c2.445,0,4.379-2.159,4.379-4.918s-1.934-5.037-4.379-5.037Z"/>
</svg>