<svg xmlns="http://www.w3.org/2000/svg" xmlns:xlink="http://www.w3.org/1999/xlink" viewBox="0 0 400 350"><style><![CDATA[.AL{fill:#9a4c18}.AM{fill:#e5895b}.AN{fill:#fff}.AO{fill:#7f3e13}.AP{fill:#4b4b4b}.AQ{fill:#b85a1b}.AR{fill:#232323}.AS{stroke-miterlimit:10}.AT{fill:#fbfac4}.AU{fill:#fad395}.AV{stroke-width:1.2131}.AW{stroke-width:1.2541}.AX{stroke-linecap:round}]]></style><g class="AL"><path d="M317.4 287.5l6.8 1.1s-6 18.7-20.6 26.4l13.8-27.5z"/><path d="M229.6 307.5s9.2 12.3 13.9 15.2c0 0 1 1.7 8 1.3l36.1-2.1c3.7-.3 19.2-2.6 32.7-27l-39.8-2.4-17.6 6.1-7-11.2-26.3 20.1z"/></g><linearGradient id="A" gradientUnits="userSpaceOnUse" x1="267.0575" y1="287.2687" x2="292.0854" y2="313.3394"><stop offset="0" stop-color="#fad395"/><stop offset="1" stop-color="#e5895b"/></linearGradient><path d="M284.6 320.2l-35.1 2.5s-8.4-.9-4.7-12.3 75.1-23.8 75.1-23.8l-.3 4.5c-4.7 15.5-19 26.8-35 29.1z" fill="url(#A)"/><path d="M305.7 261.3l8.1 2.7-11.9-13.7-7.5 1 2.2 5.5 9.1 4.5zm7.6 32.5s-12.3 16.8-21.4 13.9c-17.3-5.5-20.3-26.5-20.3-26.5s-2-17.4 13.3-12.8 28.4 25.4 28.4 25.4z" class="AL"/><path d="M317.6 294.9s-11.9 17.3-21.4 13.9C278.1 302.2 274 280 274 280s-2.9-18.5 13.1-13c16 5.4 30.5 27.9 30.5 27.9z" class="AM"/><path d="M319.2 294.6l-.4 2.8s-3.9 3.6-8.1 2.7-6.4-3.7-6.4-3.7l6.5-4.8 8.4 3zm-9.1-23.5c-.2-7.1-5.4-15.4-8.5-19.4l.2-1s.2 0 .1-.1c-.6-1.2-2.2-1-3.5-1.1-10.4-.5-19.4.8-26.1 6.6.1.1-9.6 15.4 5.1 30.9.4.4 16.8-4.2 16.8-4.2s-1.8-4.8 1.4-7.5l2.9.4-.6 2.4 2.7 1.5c3.8-2.5 6.1-4.3 9.5-8.5z" class="AL"/><path d="M304.9 261.4c-1.4-3.6-3.2-7.1-5.4-10.5-3.3 0-8.7.2-13 1.2-2.1.6-9 3.7-11.7 5 .7 3 1.4 6 2.3 8.7 4.2-1.7 13.3-4.9 16-5.2 3.9-.3 8 0 11.8.8z" class="AM"/><path d="M324.3 281.3c-3-7.6-9.1-16-12.9-20 0 0-2.6-2.1-2.5-2.4-12.5 1.7-22.2 9.5-26.8 19.7.2.1.3.2.5.3 4.2 6.6 8 14.4 16.3 19.8 2.5-.1 3.8-.7 5.9-1.3 2.1.4 6 .4 8.3-3.3l2.8-.3.1 2.8 2.9.8c2.2-2.6 3.7-4.7 5.2-7.8 1.2-2.6 1.3-5.6.2-8.3z" class="AL"/><path d="M318.2 275.5c-.1 0-.1 0 0 0-.1 0-.1 0 0 0h0zm4.7 10.2c-1-2.8-2.3-5.6-3.7-8.3-4.1-.1-8.6.5-12.4 2.1-2.8 1.3-10.6 7.5-13.9 10.5 2 2.7 4.3 4.8 6.9 6.4 5.1-1.2 8.9-3.1 13.4-7.2-1.7 2.8-3.4 4.8-6 6.7 1.7 2.2 5.6 3.1 7.7 1.8l.8-1h.1c2.9-3.6 5.1-6.9 7.1-11zm-4.8-10.2c-2.5-4.2-5.5-8.3-8.8-12.3-3.5 1-9.2 2.7-13.4 5.4-2 1.4-8 7.5-10.1 9.9 2 3.6 4 7 6.1 9.9 3.5-3.1 11.6-9.5 14.2-10.6 3.7-1.5 7.9-2.2 12-2.3z" class="AM"/><linearGradient id="B" gradientUnits="userSpaceOnUse" x1="-3055.5188" y1="749.7691" x2="-3055.45" y2="749.9565" gradientTransform="matrix(59.7877 25.9085 18.874 -43.5545 168838.4688 112108.2656)"><stop offset="0" stop-color="#e5895b"/><stop offset="1" stop-color="#fad395"/></linearGradient><path d="M322.9 285.7c-1-2.8-2.3-5.6-3.7-8.3-4.1-.1-8.6.5-12.4 2.1-1 .5-2.7 1.6-4.5 3 2 2.5 4 5.1 5.9 7.9 1.9-1.5 3.6-2.6 6.2-4.3 2.6-.6 4.9-.6 8.5-.4h0z" fill="url(#B)"/><linearGradient id="C" gradientUnits="userSpaceOnUse" x1="-3055.6902" y1="749.8976" x2="-3055.6133" y2="750.1068" gradientTransform="matrix(59.7877 25.9085 18.874 -43.5545 168838.4688 112108.2656)"><stop offset="0" stop-color="#e5895b"/><stop offset="1" stop-color="#fad395"/></linearGradient><path d="M318.1 275.6c-2.5-4.2-5.5-8.3-8.8-12.3-4.2 1.1-9.3 2.9-13.4 5.4-1.2.9-2.1 1.8-3 2.7 2.7 2.9 5.5 6.2 8.3 9.7 2.1-1.5 3.8-2.7 4.9-3.1 3.8-1.6 8.1-2.3 12.2-2.3l-.2-.1z" fill="url(#C)"/><path d="M287.9 262.9s-2.3 5.3 5.3 16.5c1.1 1.7.1 4.1-2.2 5.2-2.4 1.1-5.6 2.5-8.9 3.5-2.3.7-4.7.1-5.7-1.6-3.2-5.3-10.4-15.4-1.8-27.9l13.3 4.3z" class="AL"/><path d="M285 259.8s-1.7 8.3 5.2 18.3c1 1.5.3 3.5-1.5 4.3-1.9.9-4.5 1.9-7.2 2.6-1.9.5-3.9-.2-4.8-1.7-2.9-4.8-8.2-15.9-1.8-26.2l10.1 2.7z" class="AM"/><linearGradient id="D" gradientUnits="userSpaceOnUse" x1="277.0070288" y1="269.10797215" x2="268.5629922" y2="294.2936596"><stop offset="0" stop-color="#e5895b"/><stop offset="1" stop-color="#fad395"/></linearGradient><path d="M274.8 257.1l7.1-3.2s-13.6 9-2.6 27.8l-2.7 1.7c.1 0-9.2-12.7-1.8-26.3z" fill="url(#D)"/><path d="M313 293.3l.2-4v-.2s-3.3 7.6-14.5 9.6l11.9 7.9s7.9-9.3 12.3-21l-9.9 7.7z" class="AM"/><path d="M287.8 273.6s4.1-4.7 5.6-5.7 15.3-6.2 15.3-6.2-6.1-9.2-9.8-11.5c0 0-8.2 2.1-15.3 5.8-.1.1-1.7 7.6 4.2 17.6z" class="AL"/><use xlink:href="#j" class="AM"/><linearGradient id="E" gradientUnits="userSpaceOnUse" x1="292.30777665" y1="262.0550397" x2="303.20432255" y2="255.2558784"><stop offset="0" stop-color="#e5895b"/><stop offset="1" stop-color="#fad395"/></linearGradient><use xlink:href="#j" fill="url(#E)"/><path d="M261.2 299.2s2 4.4-1.3 10.5c0 0 5.5-6.4 3.9-11.1l-1.6.8-1-.2zm59.6-20.4l-1.6-1.6s4.3 7.9.9 15.2l4.2-4.6.4-4.2-3.9-4.8z" class="AL"/><g class="AM"><path d="M255.3 290.1s-6.8 13.3-14.5 17.1-6.7 3-6.7 3l-1.8-2.3c0 0 12.8-3.8 23-17.8z"/><path d="M238.8 306.4s0 8.8 3.4 11.6 10.2 4.6 10.2 4.6-3.4.8-5 .3c-.9-.3-2.7-1.4-4.2-2.3-1.3-.8-2.5-1.9-3.5-3l-6.8-8.8 4-.9 1.9-1.5z"/></g><g class="AL"><path d="M204.2 235.6l-.6 17.4s-12.8 14.7-27.4 10.7-20-20.7-20-20.7 5.1-10.3 3.7-26.2c-1-12 44.3 18.8 44.3 18.8zm-117.7 4.2s-3.6 7.6 1.5 10 13.2 2.7 13.2 2.7l-.7-7.3-14-5.4z"/><path d="M77 211.7l-28.1-26.8-14.6 1.5 26.2 28.9s9.3 9.4 14.1 13C78.8 231.5 87 240 87 240s-.1.7.1 1.5c5.2-2.4 10.5-4.7 15.3-7.8l-25.4-22z"/><path d="M101.1 234.2c-4.8 3.1-10.1 5.4-15.3 7.8.1.5.4 1.1.9 1.7 6.1 7 32.9 30.2 48.1 33.2l3.8-10.3-37.5-32.4zm-20.9-82.5s10.5 42.6 13.8 48.8l13.9 17 3.6.8 5-.1c1.7 0 3.1 2.7 3.5 4.3l.6 2.6 19.2 13.7-4.6 5.8-28.8-15.6-19-23.4-15.8-52.4 8.6-1.5z"/><path d="M12.8 148.7s16 37.2 32 34.9c30.5-4.4 42.1-44.5 42.1-44.5s8.9-34.2-18.7-30.6c-27.6 3.7-55.4 40.2-55.4 40.2z"/></g><linearGradient id="F" gradientUnits="userSpaceOnUse" x1="74.9256" y1="214.1767" x2="117.2035" y2="214.1767" gradientTransform="matrix(1.0082 -2.840000e-02 2.810000e-02 0.9996 77.5688 29.6429)"><stop offset="0" stop-color="#fad395"/><stop offset="1" stop-color="#e5895b"/></linearGradient><path d="M201.6 235.5l-.5 17.4s-11.3 14.6-24.2 10.6-17.8-20.8-17.8-20.8l5.5-24.5 37 17.3z" fill="url(#F)"/><path d="M287.4 124.5c2.3-1.5 4.3-3 6.4-4.8 4.6-8.3 6.6-15.5 7.1-24.6-8.5 6.5-16.4 11.7-27.4 13.1l-2.9.4 3 22.9c9.6.6 10.5 0 19.1-4.5l-4.7-2.3c-.3 0-.4-.1-.6-.2h0z" class="AO"/><path d="M273.7 111c7.1-.8 14.1-3.3 23.6-9.6-1 6.2-3.2 12.3-5.7 16.7-2.9 2.5-6.4 4.9-9.6 6.4 1.8 1.4 2.7 1.9 4.6 2.8-4 2.1-6.9 1.9-10.6 1.7l-2.3-18z" class="AQ"/><path d="M273.7 111c7.1-.8 14.1-3.3 23.6-9.6-2.9 5-6.8 9.9-11.9 13 1.6.1 2.4 0 4.5-.1-4.1 3.6-8.8 6.2-14.7 8.1l-1.5-11.4z" fill="#ff9626"/><g class="AM"><path d="M164.4 231.1s8.5 12.6 18.1 19.2c0 0 8 .8 17.9-5.6l-17.9-6.2-18.4-12 .3 4.6z"/><path d="M159.8 239l5.3 9.6.1-19.9-3.4-2.1z"/></g><g class="AL"><path d="M198.5 244.9s-5.7 4.2-11.9 5.2c0 0 8.4.1 15.5-3.9l.8-1.8-4.4.5z"/><path d="M123.8 152.8c.3 10.4-3.3 15.1.4 26.7 3 9.4 15.8 24.1 23.3 32.1-1.9-2 19.3 22.2 30 27.3 10.3 5 25 9.1 35.3 4.6 6.8-2.9 14.2-12.9 18.9-18.3 8.5-9.5 16.2-14.3 23.7-25 4.6-6.6 7.4-17 7.2-25.5 3.2-7.9 8.1-15.8 12.8-21.9 2.5-7.9-2.7 9 1.3-3.8 4.1-12.9 9.5-43.9-3.5-60.3-11.6-14.8-29.5-26.5-48.3-31.6-20.2-5.4-40.8-5.6-60.8 1-17 5.6-31.7 16-38.9 32.6-6.8 15.6-6.7 31.8-3.9 47.9.7 4.8 1.5 9.5 2.5 14.2-.1 0 .1.2 0 0z"/></g><path d="M224.1 60.6c-33.6-10-80.9-3.8-96.5 30.9-7.5 16.6-5.9 30.3-3.9 46.7 1.3 6.6 1.8 7.1 2.8 15.3 1 8.1-4.4 13.8.3 25.6 5 12.6 37.6 51.7 52.7 58 5.6 2.4 23.7 9.7 32.2 4.1 5.2-3.4 12-10.8 18-18.2 5.5-6.9 16.3-14.6 22.7-24.5 3.3-5 7.6-16.9 6.5-24.2 3.5-8.8 8.2-16 13.5-23.7 6-19.6 9.9-41.3-2.1-59.5-9.9-15.1-29.5-25.5-46.2-30.5z" class="AM"/><linearGradient id="G" gradientUnits="userSpaceOnUse" x1="193.57134939" y1="146.63602393" x2="150.44105023" y2="133.75841078"><stop offset="0" stop-color="#fad395"/><stop offset="1" stop-color="#e5895b"/></linearGradient><path d="M223.8 60.5c5.2 13.3 5.4 27.1-.3 40.5-16.9-4.8-32.3-8.5-49.9-5.8 2.2 8.9 2.1 17.4.6 26.4 6.4 3.4 12.7 6.8 18.9 10.5l7 11.5c-9.4-1.7-18.9-4.9-28.5-5.4-5.8 8.9-9.3 17.8-10 28.2-8.4-3.7-14.1-4.3-16.9 5.6 4.3 11.1 9.6 21.2 15.8 31.3-2.7-2.9-5.8-5.5-8.7-8.3 7.3 16.7 15.4 28.1 26.8 42.1 9.4 2.7 22.7 9.3 32.9 4 6.3-3.3 11.6-10.8 18-18.2 6-6.9 16.1-14.7 22.7-24.5 3.4-5 7.5-16.9 6.5-24.2 3.5-8.8 8.1-16 13.6-23.7 5.8-19.7 10.1-41.1-2.2-59.6-10.1-15.1-28.6-25-46.3-30.4-.1-.1 0 0 0 0z" fill="url(#G)"/><path d="M211.2 241.6c8.2-5.7 11.3-10.5 18.3-18.6 6.5-7.6 15.9-14.4 22.8-24.6 3.5-5.2 7.5-16.9 6.5-24.1-1.4 8.5-5.7 20.2-10.8 26.6-5.7 7.1-13.7 14.8-18.2 19.8-7.8 8.5-11.9 13-18.6 20.9 0 0 .1-.2 0 0z" class="AT"/><path d="M121.8 120.5c0 1.8.2 3.6.3 5.4l17.3 11 2.5 6.8 15.5 12.1 1.4-15.1-37-20.2c0 .1 0 .1 0 0z" fill="#b26036"/><path d="M273.4 138.2c2.2-14.7 3.6-23.1-4.2-36.2 3.1 12.8 1.2 22.9-2.1 35.5 2.1.3 4.2.5 6.3.7z" class="AT"/><path d="M225.8 198.4c-5.6-.1-9.8-1.9-14.5-4.8-16.1-1.7-32.9-7.6-45.7-17.3-4.1-3.1-6.3-7.7-10.7-10.4-2.6-.2-5.1-.1-7.8.4 1.3.3 2.6.7 3.9 1.2-3.7.7-5.6 2.5-7.7 5.5-.6-4.6-.2-9.1.5-13.8l-7.4-19.2c-.2 7.5-.5 32.4-14 22.9h-.1c.1 1.8 1.5 3.2 1.7 5.1.5 4.4 0 8.1 2 13 4.5 11.2 12.3 19.8 20.6 29.4 3.4 3.9 15.1 16 15.5 16.5 4.1 4.8 12.3 10.7 17.8 13 9.8 4.1 22.5 8.1 32.7 3.4 6.7-3.1 13.8-12.6 18.5-17.8 8.4-9.2 16.4-15.1 23.6-24.8-10.8 4.4-18.7 2-28.9-2.3zm-4.5 23.9c1.7-2.2 3.1-4.6 4.7-6.9-6.1 5.8-11.6 12.2-18.1 17.5-5 2.2-8.9 1.7-13.8-.1 2.8-1.7 4.8-3.6 7.2-5.7-3.4-.1-7-1.1-10-1.7-7.3.8-4.8 5.2-14.8-.1-5.2-2.8-17.4-25.6-16.6-34.8-1.4-1.9-.9 10.1-1.7 7.7-2.3-7.5-2.9-17.3-2.6-25.9 0 0-.1-.1 0-.1v.1c15.1 23.6 57 32.9 83.8 34.6-6.3 5-12.2 10.3-18.1 15.4z" fill="#a86d54" opacity=".502"/><path d="M150.2 92.3c14.3-.8 24.2-3.9 39.7-1.8 21.8 2.9 39.6 13.9 57.5 24.8l-35.1-61c-21-7.6-35-7.1-56.8-3.1-15.8 2.9-19 3.6-34.3 3.7 2.6 2.6 5.7 5.8 8.6 8l-12.9.1c2.5 2.2 5.7 5.3 8.4 7-2 15-4.4 25.5-7.4 39.9 10.9 16.1 17.6 32 26.4 49.2.5-15.6 4.2-26.3 9.9-40.8 3.1-4.1 5.6-5.1 10.6-6.6-7.6-4.1-11.7-7.5-17.3-14.7 1.7-1.3 4-1.8 7-1.9-1.7-.9-2.7-1.6-4.3-2.8h0z" fill="#663010"/><path d="M239 106.1C184.9 73.4 167.6 92 138.8 89.4c2.9 1.8 5.4 3 8.7 4.6-1.5.6-2.6 1.4-3.9 2.5 4.4 4.5 7.6 10.4 15.2 14.4-3.2 1.3-4.8 2.8-7 5.9-4.5 11.4-8.8 24.2-8.8 33.6-6.8-13.3-13.1-27.9-22.1-41.3 3-14.5 4.9-22.1 7.1-38.5.8-.1 2-.4 3.1-.9-2.7-1.3-5.5-3-6.9-4.2 5.1-.1 9.9-.2 14.8-.8-4.7-2-8.2-4.6-11-7.3 28-.2 46.2-13.6 82.5-.5l28.5 49.2z" class="AO"/><path d="M239 106.1c-47.2-28.6-68.7-21.4-92-21-3.5-1.2-6.2-2.3-9.6-4.1 5.4.6 7.8.1 12-.6-9-2.9-14.9-5.5-21.4-9.7.8-.1 2-.4 3.1-.9-2.7-1.3-5.5-3-6.9-4.2 5.1-.1 9.9-.2 14.8-.8-4.7-2-8.2-4.6-11-7.3 28-.2 46.2-13.6 82.5-.5l28.5 49.1zm-95.4-9.5c4.4 4.5 7.6 10.4 15.2 14.4-11.1-.3-16.6-1.6-22.3-4.4-1.3-2-2.1-3.5-3.5-5.8 3.8 2.5 5.6 3.6 10.3 5.4-7.4-4.5-13.4-15-15.2-19.8 3.4 3.4 9.2 7.1 15.5 10.2z" class="AQ"/><path d="M128 57.5c18.1-.2 32.2-5.8 49.6-6.2 16.8 9.8 29.2 24.4 39 38.6-17.2-9.5-34.1-14-56.2-13.8 7.4-3 9.9-3.3 19.9-3.9-14.6-2.6-24.3-1.2-36.9-3.5 5-2.5 8.3-4.4 14.7-7.4-12.2.3-19.8.1-30.1-3.8z" fill="#ff9700"/><path d="M155.9 109.8c-3.9-.6-8.3-1.8-11.8-3.6-3.8-4.2-5.7-6.9-10.3-13.1 8.2 7.6 13.9 12.4 22.1 16.7z" fill="#ff9701"/><path d="M279 90.7c2.5-10.6 3.5-21.5 2.1-32.5-3.4-8.6-8.9-15.8-14.5-21.9 1.4 6.1 1.5 13.1 1.5 18.6-10.8-15.4-23.9-23.6-39.6-30.1 4.5 9.7 5.2 13.6 7 22-17.6-9.4-38-12-57.4-12.3 8 9.8 15.4 19.4 22.5 30.7l9.6 15.3-5.9 3.4-5.2-1.8-18.8-.9c18.3 3.7 36.5 13 50.9 25-4.9.2-8.5.1-13.1-.4 11.8 5.9 20 10.1 34.5 14.4 11.1-.3 23.5-7 33.9-16 4.4-11.7 4.3-21.9 2.6-31.3-2.6 7.6-5.1 12.1-10 18l-.1-.2z" class="AO"/><path d="M284.6 102.1c2.4-5.8 3.7-13.1 3.4-20.5-2.5 6-5.6 10.3-9.3 13.1-2.5 5.3-5.4 9.5-8.3 13.7 8.3-20.6 9.5-36.7 7.9-49.7-2.7-6.1-4.9-10-8.3-14.3.6 5.9 1.3 11.3 1.3 15.9 1.4 3.7 1.9 7.1 2.3 10.9-7.3-18.8-22-32.4-39.6-41.2 7.3 16.9 7.9 32 5.8 42.8-.6-9.7-1-15.2-3.4-22-12.7-6.9-34.4-12.1-51.3-13 11.3 13.8 21 30.1 25.2 42.7-10.2-2.2-20.1-1.2-29.9.7 19.1 1.3 39.7 11.3 58.5 27.7-2.8 0-5.5.2-8.3.1 5.8 2.4 13.3 5.8 22.6 8.6 10.6-1.4 18.3-4.3 31.4-15.5h0z" class="AQ"/><path d="M185.1 37.7c11.3 13.8 21 30.1 25.2 42.7-10.2-2.2-20.1-1.2-29.9.7 18.1 1.1 37 5.5 56.8 20.5 1.4-13.6-2.6-33.8-8.5-42.2 1.6 8.3 1.7 12.3.7 16.9-2.8-10.9-6.7-18.1-12.5-25.7-10.9-5.9-21.7-10.1-31.8-12.9h0zM275 95.1c4.1-14.5 4.5-26.4 3.3-36.4-2.7-6.1-4.9-10-8.3-14.3 5.4 9.6 4.7 18.6 3.6 26.8-7.3-18.8-22.1-32.4-39.7-41.2 15.1 13.3 17.9 32.2 18.3 44.4-2.9-5.6-5.2-9-8.4-12.9-2.2 15.8-3.3 34.1-1.7 41.6 2.2-8.6 3.2-13.2 5.7-20.5-1.2 10 1.5 27.2 5.4 34.9 6.2-8.4 12.9-16.8 18.1-30.5-2.5 11.6-4.4 18.5-8.2 26.5 2.3-1.5 8.7-12.5 11.9-18.4h0zm13-13.5c-2.5 6-5.6 10.3-9.3 13.1-1.3 2.7-2.7 5.2-4.1 7.5 2.3-1.4 4.7-3 6.9-5.4.2 1.7.2 2.5.1 3.9 2.8-4.6 5.1-9.5 6.4-19.1h0z" fill="#ff9700"/><path d="M273.2 95.9c4.7-15.3 5.3-24.8 3.1-38.5 0 12.5-.3 25.6-3.1 38.5zm-48.3-6.4c-2.7-2.6-5.6-5.1-9.6-6.9-6.3-1.9-12.3-2.4-18.4-2.8 9.7 2.1 19.2 4.8 28 9.7zm3.4.1c.2-15.8-5.9-27.3-12.5-37.1 6.2 14.6 9.4 23.2 12.5 37.1zm14.5-2.9c2-7.2 2.8-15.1 1.3-23.4-.8 8.2-1.9 16.1-1.3 23.4zm9 1.8c1.6-3.2 3.4-6.9 4.7-10.7 1-9.1-1.9-15-5.5-21.8 3.3 10.7 3.6 21.6.8 32.5zm14.4 7c2-4 4.9-10.7 6.4-15.5-.6-9.2-5.3-19-12.1-28.6 6.4 15.5 10 25 5.7 44.1z" fill="#fde049"/><path d="M127.9 155.2l8.9-10.8c4.7-10.7-3.7-36.3-17.8-38.6-12.3-2-15.8 20.8-15.9 29.1-.1 11.8 8.3 27.9 19.6 32.7 4.8 2 9.8 1.3 12-3.3l-6.8-9.1z" class="AL"/><linearGradient id="H" gradientUnits="userSpaceOnUse" x1="116.9948882" y1="144.79260118" x2="109.14364651" y2="152.99029139"><stop offset="0" stop-color="#e5895b"/><stop offset="1" stop-color="#fad395"/></linearGradient><path d="M134.6 164.3c1.6-7 2.1-13.1 2.1-19.9.1-8.7-5.4-33.2-18.4-35.3-8.4-1.3-12.2 15.4-12.3 25.8-.1 18 18.5 37.9 28.6 29.4h0z" fill="url(#H)"/><linearGradient id="I" gradientUnits="userSpaceOnUse" x1="-3086.4587" y1="794.4967" x2="-3086.5125" y2="794.0513" gradientTransform="matrix(41.6807 17.9971 17.944 -41.5579 114514.5078 88690.2031)"><stop offset="0" stop-color="#fad395"/><stop offset="1" stop-color="#e5895b"/></linearGradient><path d="M135.5 134.2c-2.3-10.5-7.7-23.6-17.1-25.1-6.5-1-10.2 8.6-11.6 17.8 3.8 11.1 12.5 20.9 20.7 22 7.8 1 9.4-8.5 8-14.7h0z" fill="url(#I)"/><path d="M126.6 153.2c-4.2-3.8-2.9-12.6 4.2-8.6.5-9.9-3.8-24.8-12.1-26.2-6.7-1.2-12.8 20.8 2.4 31.3l5.5 3.5z" class="AL"/><linearGradient id="J" gradientUnits="userSpaceOnUse" x1="-3066.6558" y1="794.1937" x2="-3066.8806" y2="793.7081" gradientTransform="matrix(28.3564 12.2438 15.488 -35.8698 74786.9688 66165.1172)"><stop offset="0" stop-color="#c76636"/><stop offset="1" stop-color="#e5895b"/></linearGradient><path d="M126.8 153.3c-7.8-5.5-2.6-13.5 2-11.3-.4-7.5-3.4-20.6-10.6-21.7-4.9-.7-6.8 12.5-6.1 18 1.3 10.4 9.4 17.5 14.7 15h0z" fill="url(#J)"/><path d="M194 174.1s17.6-7.4 13.1-30.1c0 0-14-14.8-37.3-6.5 0 0-7.1 7.4-5.4 20.1.1-.1 6.7 15 29.6 16.5z" class="AL"/><linearGradient id="K" gradientUnits="userSpaceOnUse" x1="-5606.6929" y1="359.0369" x2="-5612.6655" y2="396.4655" gradientTransform="matrix(-0.7854 -0.4058 -0.4598 0.8898 -4043.8928 -2465.207)"><stop offset="0" stop-color="#fad395"/><stop offset="1" stop-color="#e5895b"/></linearGradient><path d="M194.2 171.9s15.7-5.9 10.9-25.6c0 0-13.2-13.1-33.9-6.7 0 0-6.3 6.1-4.3 17.1 0 .1 6.4 13.2 27.3 15.2z" fill="url(#K)"/><g class="AM"><path d="M258.6 183.8s15.7-21.3 3.1-29.5c-12.6-8.3-17.2-2.3-22.3 2.8s-7.1 21.8-7.1 21.8 8.3 5 26.3 4.9zm-46-59.4l-2 26.5-39.9-18.2s-6.8 6.5-2.7-2.9c4.2-9.5 16-20.1 25.7-15.2l18.9 9.8z"/><path d="M237.3 156.7s-1.1-5.1 1.6-10.8c3.6-7.9 12.8-11.8 21.1-9.2 7.1 2.2 15.2 7 12 17-5.4 16.9-5.9 13.9-5.9 13.9l-28.8-10.9z"/></g><linearGradient id="L" gradientUnits="userSpaceOnUse" x1="-5599.2173" y1="355.3035" x2="-5549.4634" y2="397.468" gradientTransform="matrix(-0.8884 -0.4591 -0.4591 0.8884 -4542.3037 -2728.4216)"><stop offset="0" stop-color="#fad395"/><stop offset="1" stop-color="#e5895b"/></linearGradient><path d="M259.9 178.5s16.6-22.9 4-31.3-17.5-1.9-22.8 3.6-7.9 23.2-7.9 23.2 8.4 5.1 26.7 4.5z" fill="url(#L)"/><path d="M212.4 129.2s2-13.1-9.5-16.9-23.5-4.5-32.7.8-17.7 24-17.7 24l7.3-2.3s5.6-12.6 19.6-13.6c14-1.1 21 1 25.6 4 4.5 2.9 7.4 4 7.4 4z" class="AO"/><path d="M162 178.3s17.8 11.8 40 19.4 28.4 7.5 28.4 7.5l-11.9 22.6s-3.7 5.8-10.5 3.8c-6.9-2-25.1-4.1-32.2-13.1S162 178.3 162 178.3z" class="AL"/><path d="M167.1 184.7s14.4 10.6 33.3 17.6 24.3 7 24.3 7l-8.9 14.7s-2.8 3.6-8.6 1.6-21.2-5-27.7-11.6c-6.4-6.7-12.4-29.3-12.4-29.3z" fill="#6d3929"/><path d="M176 208.3c-1.4-4.9 1.8-9.7 6-8.9 6.9 1.3 15.9 3.6 19.9 6.5 6.8 5.1 9.7 10.5 8.4 15.2s-12.4-1.3-12.4-1.3L176 208.3z" fill="#a85b39"/><linearGradient id="M" gradientUnits="userSpaceOnUse" x1="192.97001768" y1="192.28198984" x2="212.7682356" y2="224.2915388"><stop offset="0" stop-color="#99acb3"/><stop offset="1" stop-color="#fff"/></linearGradient><path d="M225.2 208.2c-1.3 1.7-1.4 2.4-2.9 3.3-1.5.2-5.2-1.2-6.6-1.3-5.8-.8-36.6-12-34.7-11.5-4.7-2.6-9.8-6.2-11.7-8.6-.8-1-2.4-3.5-2.5-5.1 2.4 1.6 4.5 2.8 6.9 4 17.4 8.1 34.1 14.4 51.5 19.2z" fill="url(#M)"/><path d="M226.3 204.6l.2 5.6 12.4-3.5z" class="AL"/><path d="M172.4 192.2s29.6 12.9 37.4 15.2l13.2 3.5s-.6 1.1-2.9.8-37.5-7.9-47.7-19.5z" class="AN"/><path d="M167.6 155.7c6.3 2.3 11.4 6.6 14.7 10.7 6 3.1 9 3.8 13.9 4.7 9.5-3 14.4-16.4 10.3-25.4-14.4-5.2-31.7-8.2-36-7.7-4.1 3.8-7.8 13.1-2.9 17.7h0z" class="AR"/><linearGradient id="N" gradientUnits="userSpaceOnUse" x1="184.43608011" y1="156.19128159" x2="181.7797819" y2="162.97598784"><stop offset="0" stop-color="#bdd6de"/><stop offset="1" stop-color="#fff"/></linearGradient><path d="M167.6 155.7c5.6 2.8 9.9 5.9 13.2 10.1 6.4 2.4 9.7 3.2 14.4 3.4 7.6-3.2 11.1-13.4 8.4-21.1-5.4-4-25.5-9.5-31.3-7.1-4.7 3.2-6.8 9.7-4.7 14.7h0z" fill="url(#N)"/><path d="M204 157.9c.8-3.3.7-6.7-.4-9.8-5.4-4-25.5-9.5-31.3-7.1-1.8 1.3-3.2 3-4.1 4.9 3.9 9.1 27.6 20.9 35.2 12.8.1-.2.4-.5.6-.8h0z" class="AN"/><path d="M240.1 153.6c-5.5 6.2-7.3 16-6.1 25.1 4.4 4.4 17 6.7 23.3 4 5-7.1 6.9-19.6 2.7-27-4-7.1-14.2-8.5-19.9-2.1z" class="AR"/><linearGradient id="O" gradientUnits="userSpaceOnUse" x1="-1118.189" y1="414.7991" x2="-1117.4423" y2="420.2744" gradientTransform="matrix(1.0891 0.2957 -0.2748 1.0121 1577.1003 85.7848)"><stop offset="0" stop-color="#bdd6de"/><stop offset="1" stop-color="#fff"/></linearGradient><path d="M239.1 156c-4.9 5.4-7.7 16.4-6.6 24.5 5.3 2.2 17.4 3.2 22.2.9 4.5-6.2 6.1-16.9 2.3-23.4-3.7-6.3-12.8-7.7-17.9-2z" fill="url(#O)"/><path d="M239.1 156c-2.4 2.7-4.3 6.7-5.5 11.1 3.6 8.4 20.8 12.8 25.6.2.1-3.4-.6-6.7-2.1-9.3-3.8-6.3-12.9-7.7-18-2z" class="AN"/><path d="M246.7 163.6c-6.1-1.6-10.8 2.4-12 6.4s.8 9.6 6.8 11.1c6.1 1.5 10.8-2.4 12-6.4 1.1-3.9-.8-9.5-6.8-11.1z" fill="#022740"/><radialGradient id="P" cx="-3029.3665" cy="768.781" r=".5367" gradientTransform="matrix(18.2927 4.9661 2.5046 -9.2257 53731.4336 22315.5391)" gradientUnits="userSpaceOnUse"><stop offset="0" stop-color="#33b4ff"/><stop offset="1" stop-color="#022740"/></radialGradient><path d="M235.8 175.3c.9 2.4 3 4.4 5.9 5.2 2.9.7 5.7 0 7.9-1.7-.9-2.4-3-4.4-5.9-5.2-2.9-.7-5.7.1-7.9 1.7z" fill="url(#P)"/><path d="M245.6 167.3c-3-.8-6.1 1-6.9 3.8-.8 2.9.9 5.8 3.9 6.5 3 .8 6.1-.9 6.9-3.8.8-2.8-.9-5.8-3.9-6.5z" fill="#151720"/><path d="M252 167.5c-2.7-.7-5.3.4-5.9 2.3-.6 2 1.1 4.1 3.8 4.8s5.3-.3 5.9-2.3-1.1-4.1-3.8-4.8z" class="AN"/><path d="M275.5 146.8s3.5-6.4-1.1-10.9c-1.8-1.7-6.7-3.3-10.3-4.4-13.2-4.3-19.8 3.1-24 12.5 0 0 9.6-8.9 21.2-2.7 9.2 5 11.1 11 11.1 11s2.8-2 3.1-5.5z" class="AO"/><linearGradient id="Q" gradientUnits="userSpaceOnUse" x1="-5596.8071" y1="340.5075" x2="-5569.8022" y2="340.5075" gradientTransform="matrix(-0.8884 -0.4591 -0.4591 0.8884 -4542.3037 -2728.4216)"><stop offset="0" stop-color="#b85a1b"/><stop offset="1" stop-color="#7f3e13"/></linearGradient><path d="M273.5 143.8s-2.2-11.2-14.8-11.3c0 0-6.5 1-11.3 3-.1 0 16.6-3.1 26.1 8.3z" fill="url(#Q)"/><path d="M126.8 269.5L62.7 215s13-36.6 27.5-16.5c23.8 33.1 57.6 60.2 57.6 60.2l-21 10.8z" class="AM"/><linearGradient id="R" gradientUnits="userSpaceOnUse" x1="90.2751" y1="176.0813" x2="60.5102" y2="195.6634"><stop offset="0" stop-color="#fad395"/><stop offset="1" stop-color="#e5895b"/></linearGradient><path d="M75.5 147.3l14.8 49.8c3.4 10.5.9 18.3-8.6 22.8-4.7 2.3-15.5-.6-20.4-5.9l-30.9-34.5 45.1-32.2z" fill="url(#R)"/><path d="M187.4 144c-6.5-2.7-12.4 1.3-14.4 5.8s-.7 11.3 5.7 14c6.5 2.7 12.4-1.2 14.4-5.7s.8-11.4-5.7-14.1z" fill="#022740"/><radialGradient id="S" cx="-3020.3154" cy="783.5165" r=".5377" gradientTransform="matrix(19.6188 8.4711 4.4525 -10.3118 55945.5977 33825.957)" gradientUnits="userSpaceOnUse"><stop offset="0" stop-color="#33b4ff"/><stop offset="1" stop-color="#022740"/></radialGradient><path d="M173.4 156.1c.6 3 2.6 5.6 5.7 6.9s6.4.8 9.1-.8c-.6-3-2.6-5.6-5.7-6.9-3.1-1.2-6.4-.8-9.1.8z" fill="url(#S)"/><path d="M185.6 148.1c-3.2-1.3-7 .2-8.4 3.5-1.4 3.2 0 6.9 3.2 8.2s6.9-.2 8.3-3.4c1.6-3.3.1-7-3.1-8.3z" fill="#151720"/><path d="M190.8 146.2c-2.2-.9-4.8.2-5.8 2.4-1 2.3 0 4.8 2.2 5.7s4.8-.2 5.8-2.4 0-4.8-2.2-5.7z" class="AN"/><g class="AP"><path d="M210.2 300l4.4 6.3-2.1 9.4c-.3 1.8-.7 11.4-.7 11.4l1.1 2.5s-21.9 12-39.9 9.7c-15.5-2-44.9-12.6-44.9-12.6s4.5-9.2 5-13.8c.6-4.7-1-28.1-1-28.1l16 2.8 62.1 12.4z"/><path d="M205 249.3l20.3 4.1s1.8 29.7-10.9 47.1c0 0-34.9 7.6-80.2-12.6 0 0-6.7-25-2.5-52.7l26.4 1.7 20.9 23.7 26-11.3z"/><path d="M206.8 306.3l-1.1 7.8c-.5 1.5 1.7 16.8 1.7 16.8l4.7-1.9-1.2-3.4 2.1-16.1 5.3-14.4s3.4-10.4 4.2-15.8c.8-5.5 1.9-25.4 1.9-25.4s-7.4 44-17.6 52.4zm-71.2 22.8s4.6-11.3 4.7-14c.2-2.7-3.3-21.8-3.5-24-.1-2.2-7.6-35.4-2.5-56.1l-2.8 2.8s-4 31 2.1 46.5l.4 30.8-4.7 11.7 6.3 2.3z"/></g><g class="AN"><path d="M208.8 300l3.2 6.3-2.6 8.3c-.3 1.7.1 9.3.1 9.3l1 5.9s-22.9 10-37.2 7.7c-14.8-2.4-42-11.5-42-11.5s4.1-6.3 4.7-10.6c.6-4.4-1.4-19.9-1.4-19.9l15.4-3.3 58.8 7.8z"/><path d="M204.7 249.6l21 6.7s.6 28.2-11.5 44.8c0 0-35.5 12.5-78.4-6.2 0 0-9.6-28.5-5.6-54.6l26.8-2.5s14.8 20.9 22.6 22.4c6.7 1.3 25.1-10.6 25.1-10.6z"/></g><path d="M158.3 237s10.6 15.2 21.7 21.8c0 0 11.2-3.3 24.2-9.8l4.9 1.3s-17.7 9.2-29.8 10.9c0 0-16-9.8-23.4-23.8l2.4-.4z" class="AP"/><path d="M151.1 237.7s10 20.8 28 27.6c0 0 23.5-2.8 35.3-13.4" fill="none" stroke="#999" class="AS AV"/><linearGradient id="T" gradientUnits="userSpaceOnUse" x1="408.1908" y1="489.5627" x2="422.3914" y2="489.5627" gradientTransform="matrix(0.9894 0.2461 -0.1455 0.9746 -124.9847 -285.9631)"><stop offset="0" stop-color="#ccc"/><stop offset="1" stop-color="#fff"/></linearGradient><path d="M205.5 305.8l-1 7.5c-.4 1.5 2.6 18.1 2.6 18.1l3.7-1.6-1.2-5.4 1.9-15.4 4.1-8.3s7.5-15.3 8.3-20.4c.8-5.2 1.7-23.9 1.7-23.9s-10.3 41.3-20.1 49.4z" fill="url(#T)"/><linearGradient id="U" gradientUnits="userSpaceOnUse" x1="323.8074" y1="498.563" x2="347.3218" y2="498.563" gradientTransform="matrix(0.9894 0.2461 -0.1455 0.9746 -124.9847 -285.9631)"><stop offset="0" stop-color="#ccc"/><stop offset="1" stop-color="#fff"/></linearGradient><path d="M137.3 328s4.4-11.3 4.5-13.9c.2-2.6-2.5-21.4-2.6-23.4-.1-2.1-7.8-33-2.9-52.5H131s-9.6 16.7.2 36.1l4.6 39.8-4.9 12.1 6.4 1.8z" fill="url(#U)"/><linearGradient id="V" gradientUnits="userSpaceOnUse" x1="407.0815" y1="510.4739" x2="337.2324" y2="509.6221" gradientTransform="matrix(0.9894 0.2461 -0.1455 0.9746 -124.9847 -285.9631)"><stop offset="0" stop-color="#ccc"/><stop offset="1" stop-color="#fff"/></linearGradient><path d="M133.6 290s11.1 8.7 17.3 9.6c0 0 23.5-4.1 41.9 5.8 0 0 6 1 16.7-4 0 0-5 11.5-16.4 13 0 0-16.4-7-41.8-4.6 0 .1-14.5-9.2-17.7-19.8z" fill="url(#V)"/><path d="M133.4 320.6s25.4 9.1 30.3 10 18.1 7.1 46.2-6.1" fill="none" stroke="#999" class="AS AV"/><path d="M224.7 253.7s.4 13.4-.1 20c0 0 4.4-11.5 3.8-18.2 0 0-2.1-1.4-3.7-1.8z" class="AO"/><path d="M221.1 295.1l-9.1 15.8-.4-1.7s5.4-10.8 7.4-16.3l2.1 2.2zM138.7 271c3.9.4 7.8 1 11.6 1.4-.1.6-.2 1.2-.2 1.8-.1.6-.1 1.2-.2 1.8-3.9-.5-7.7-.9-11.7-1.3.8-.5 1.6-1.1 2.4-1.6-.7-.8-1.3-1.4-1.9-2.1h0z" class="AP"/><path d="M142.6 272.7c0 .5-.2 1-.2 1.5 0 .2-.2.3-.5.2-.2 0-.3 0-.5-.1.1-.6.1-1.2.3-1.8-.2 0-.3 0-.5-.1-.2 0-.3-.1-.3-.4v-.3l2 .2c.2 0 .3.1.3.3s-.2.3-.4.3-.3 0-.5-.1l.3.3zm4.8 2.4c.2 0 .3-.1.4-.3v-.3c-.3 0-.6-.1-.9-.1.1-.1 0-.2.1-.4.2 0 .3 0 .5.1.2 0 .4-.1.3-.3v-.3c-.3 0-.5-.1-.8-.1v-.4c.2 0 .4.1.6.1s.4-.1.4-.3v-.3c-.6-.1-1.2-.2-1.8-.2l-.3 2.5c.4.1 1 .1 1.4.1l.1.2zm-1.4-2.6c0 .1 0 .2-.1.3-.1.6-.1 1.2-.2 1.8 0 .2-.2.3-.5.2-.3 0-.4-.2-.4-.4s.1-.4.1-.6c-.2 0-.4-.1-.6-.1 0 .2-.1.4-.1.6s-.2.3-.5.2c-.2 0-.3 0-.5-.1v-.3c.1-.6.1-1.2.2-1.8 0-.1 0-.2.1-.3.2 0 .3 0 .5.1.3 0 .4.2.4.4s-.1.4-.1.6c.2 0 .4.1.6.1 0-.2.1-.4.1-.6s.2-.3.5-.2c.2 0 .3.1.5.1z" class="AN"/><linearGradient id="W" gradientUnits="userSpaceOnUse" x1="-3082.4185" y1="802.9393" x2="-3082.4185" y2="802.7309" gradientTransform="matrix(70.5211 17.5397 2.3678 -15.8557 215655.7344 67074.6719)"><stop offset="0" stop-color="#b85a1b"/><stop offset="1" stop-color="#7f3e13"/></linearGradient><path d="M171.6 281.9c-.2.9-1.1 1.2-2.2 1.1l-2.2-.3-.3-.9v-.5c-1.2.8-2.7 1-4.3.8-2.1-.3-3.9-1.4-4.9-3.1-.2-.4-.5-.8-.7-1.2-.8.4-1.6.6-2.6.5-.1 0-.3 0-.4-.1v.5c0 .2 0 .5-.1.7-.3 1-1.2 1.3-2.4 1.1l-2.3-.2c-.3-.3-.5-.6-.8-1 0-1.6.1-3.3.3-4.9l.8-5 5.6.8c1.5.2 2.5 1.1 2.9 2.2h0c1.4-1.2 3.4-1.7 5.3-1.4 1.8.3 3.3 1.1 4.2 2.4l.3-1.5 5.3.9c1 .1 1.8.7 2.3 1.4 0-.3.1-.7.2-1 .8.1 1.5.2 2.2.4.8.1 1.4.5 1.8 1.2l1 1.5v-.3c.2-1.2 1.2-1.7 2.5-1.4l2.2.4v.1l3.9.4c1.2.2 2.2.9 2.8 1.8 0-.1.1-.2 0-.3.1-.3.2-.7.4-1l2.1.4c.9.1 1.5.6 1.8 1.2.1-.3.3-.5.4-.9l2.1.4c.6.1 1.1.3 1.5.8l4.3 1.1h.1c1 .4 1.8 1 2.3 1.9.1-.3.1-.5.2-.8.2-.3.4-.6.7-.9l6.5 2.1-.3 1.8c-.1.5-.3.8-.6 1.1.1 0 .1 0 .2.1l-.3 1.7c-.1.6-.3.8-.6 1.2.2.1.4.2.7.2l-.3 1.7c-.1.4-.2.7-.5.9-.1.1-.2.2-.4.3-.1.1-.3.2-.4.3-.4.2-.8.2-1.3 0l-4.8-1.5c0-.2 0-.4.1-.6-.7.5-1.5.7-2.5.5h-.1l-4.5-1.1c0-.4.1-.8.1-1.1-.8.3-1.9.4-2.8.2-1.2-.2-2.6-.7-3.4-1.8-.1-.2-.3-.4-.4-.6-.6.8-1.5 1.2-2.7 1.2h-.1l-4.8-.5c0-.4-.1-.8-.1-1.3-.1.2-.3.3-.5.5-.8.4-2.2.1-3-.6h0c-.1-.1-.1-.1-.2-.3l-1.2-1.6c-.1.7-.1 1.3-.8 1.6-.4.2-.9.2-1.4.1l-2.2-.4v-.1c-1 .3-1.9-.1-2.6-.9-.2-.2-.3-.4-.4-.6 0-.1-.1-.1-.2-.2l-.5.4z" fill="url(#W)"/><path d="M196.3 278.8c0-.3 0-.6.1-.9s.3-.5.4-.9c.7.1 1.3.3 2 .4.6.1 1.1.4 1.5.8l4.4 1.1h.1c1.2.5 1.9 1.2 2.5 2.2 0-.3.2-.7.2-1.1.2-.3.4-.5.6-.8l6.3 2-.3 1.6c-.1.6-.4.8-.8 1.2.1 0 .2.1.2.1l-.3 1.6c-.1.6-.3.8-.8 1.3.2.1.6.2.8.3l-.3 1.6c-.1.4-.2.7-.4.9-.2.1-.6.6-.8.7-.4.2-.8.2-1.2.1l-4.7-1.5c0-.3.1-.6.1-.9-.7.7-1.6.9-2.7.7h-.1l-4.4-1.1c0-.4.1-.8.1-1.3-1.9 1-5.9.2-6.8-2.2-.6.9-1.6 1.3-2.7 1.3h-.1l-4.6-.5c-.1-.7-.1-1.4-.1-2.1-.1.6-.2 1-.7 1.2-.7.4-2.1.1-2.8-.6-.1-.1-.1-.1-.2-.3l-1.5-1.9c0 .8 0 1.5-.8 1.9-.4.2-.8.2-1.3.1l-2-.3v-.2c-1 .3-1.9 0-2.6-.8-.2-.2-.6-.8-.7-1-.1 1-1 1.5-2.1 1.2l-2.1-.3c-.1-.2-.2-.5-.3-.8v-.8c-1.2 1-2.7 1.2-4.5.9-2-.3-3.8-1.3-4.7-3-.2-.5-.6-1-.7-1.4-.8.5-1.6.7-2.7.5-.2 0-.4-.1-.6-.1 0 .3 0 1-.1 1.4-.2.9-1.1 1.2-2.2 1.1-.7-.1-1.5-.2-2.2-.2-.2-.3-.5-.5-.7-.8 0-1.6.1-3.2.3-4.9s.5-3.2.9-4.8l5.4.8c1.4.2 2.4 1.1 2.8 2.2 0 .1.1.2.1.3 1.4-1.4 3.3-1.8 5.4-1.5 1.9.3 3.5 1.2 4.3 2.7l.3-1.7 5.1.8c1.1.2 1.9.8 2.4 1.7.1-.4.1-.8.2-1.2l2.1.4c.7.1 1.3.4 1.7 1.1l1.3 1.9c0-.2.1-.4.1-.6.2-1.1 1.1-1.6 2.3-1.3.7.1 1.4.3 2 .4v.1l4 .4c1.3.3 2.3 1 3 2.1 0-.2 0-.4.1-.6l.3-.9c.7.1 1.3.3 2 .4 1.2.2 1.9.9 1.8 2.1h0l-.6-.3z" class="AO"/><g class="AQ"><path d="M175.6 274.8c.1-.4.1-.8.2-1.3l2.1.4c.7.1 1.3.4 1.7 1.1l1.3 1.9c0-.2.1-.4.1-.6.2-1.1 1.1-1.6 2.3-1.3.7.1 1.4.3 2 .4v.1l4 .4c1.5.3 2.5 1.2 3.1 2.4.1-.6.1-1.2.2-1.9.7.1 1.3.3 2 .4 1.2.2 1.9.9 1.8 2.1 0 .2.2.2.3 0 0-.6.1-1.2.2-1.8.7.1 1.3.3 2 .4.6.1 1.1.4 1.5.8l4.4 1.1h.1c1.3.5 2.3 1.5 2.8 2.8l.5-2.5 6.3 2-.3 1.6c-.1.7-.5 1.1-1 1.1.2.1.3.1.5.2l-.3 1.6c-.1.7-.5 1.1-1.1 1.2.4.1.7.2 1 .4l-.3 1.6c-.2 1-.8 1.4-1.8 1.1l-4.7-1.5c0-.3.1-.6.1-.9-.7.7-1.7.9-2.9.8l-4.5-1.1c0-.4.1-.9.1-1.3-.9.4-2 .5-3.1.3-1.5-.3-3.3-1.1-3.9-2.6-.6.9-1.6 1.4-3 1.4l-4.7-.5c-.1-.7-.1-1.4-.1-2.2v.1c-.1 1.1-.9 1.6-2.1 1.3-.7-.1-1.3-.5-1.7-1-.5-.6-1-1.3-1.5-2 0 .2 0 .5-.1.6-.1 1.1-1 1.6-2.1 1.3l-2.1-.3v-.2c-1 .4-2 0-2.7-.9l-.7-1c-.1 1.1-1 1.5-2.1 1.3l-2.2-.3c0-.6 0-1.2.1-1.9-1.1 1.2-2.9 1.6-4.8 1.3-1.6-.2-3-.8-4.1-1.9-.8-.8-1.3-1.8-1.4-2.7-.8.6-1.8.8-2.9.7-.2 0-.4-.1-.6-.1v1c-.1 1.1-1 1.7-2.3 1.5-.7-.1-1.5-.2-2.3-.2l.3-4.9c.2-1.7.5-3.2.9-4.8l5.4.8c1.5.2 2.6 1.2 2.8 2.4 1.4-1.4 3.3-1.8 5.4-1.5 1.9.3 3.5 1.2 4.3 2.7l.3-1.7 5.1.8c1.1.2 1.9.8 2.4 1.7l-.2-.2z"/><path d="M154 276.4c.9.1 1.7-.1 2.3-.5.6-.5 1-1.1 1.1-1.8.2-.7 0-1.4-.4-2-.5-.6-1-1-1.8-1.1l-4.6-.6-.7 4.2c-.2 1.4-.3 2.7-.3 4.1.4.1 1 .1 1.5.2 1 .1 1.4-.2 1.5-.9 0-.5.1-1.1.1-1.7.4 0 .9.1 1.3.1h0zm27.4 2.4l.3-2.5c.1-.7.6-.9 1.5-.8l1.3.3-.5 3.5c-.2 1.2-.2 2.3-.3 3.5-.1.7-.5.9-1.3.8-.5-.1-.8-.3-1.1-.6l-1.4-1.8c-.5-.6-.9-1.2-1.3-1.8l-.2 2.6c-.1.7-.5.9-1.4.8-.4-.1-.9-.1-1.3-.2 0-1.3.2-2.6.3-4s.4-2.6.5-4c.4.1.8.1 1.3.2.6.1.9.3 1.1.7l1.2 1.8c.5.4.9.9 1.3 1.5h0zm-7.6-.3c.3.5.7 1.1 1.1 1.6.3.4.4.7.4 1s-.2.5-.5.7-.6.2-1 .2c-.3 0-.6-.3-1-.7l-1.9-2.9-.1 2c0 .7-.5.9-1.4.8-.4-.1-.9-.1-1.3-.2l.3-4 .6-4.1c.4.1.9.1 1.3.2 1 .1 2 .3 3 .5.7.1 1.3.5 1.7 1 .4.6.5 1.2.5 1.8-.2 1.1-.8 1.8-1.7 2.1h0zm-2.6-3.5c-.1.6-.2 1.2-.2 1.8.3 0 .5.1.8.1.8.1 1.1-.1 1.3-.7.1-.6-.3-1-1-1.1-.4 0-.6-.1-.9-.1zm-17.3-2.5c.8.1 1.2.5 1.1 1.1s-.6.9-1.3.8c-.3 0-.5-.1-.8-.1l.3-1.9c.3 0 .5 0 .7.1h0z"/></g><path d="M153.9 276.5c.9.1 1.7-.1 2.3-.5.6-.5 1-1.1 1.1-1.8.2-.7 0-1.4-.5-2s-1-1-1.8-1.1l-4.6-.6-.7 4.2c-.2 1.4-.2 2.7-.3 4.1.4.1 1 .1 1.4.2 1 .1 1.4-.2 1.5-.9 0-.5.1-1.1.1-1.7.4 0 .9 0 1.5.1h0zm27.4 2.4l.3-2.5c.1-.7.6-.9 1.5-.8l1.3.3-.5 3.5c-.2 1.2-.2 2.3-.3 3.5-.1.7-.5.9-1.4.8-.5-.1-.8-.3-1.1-.6l-1.4-1.8c-.5-.6-.9-1.2-1.3-1.8l-.2 2.6c-.1.7-.5.9-1.4.8-.4-.1-.9-.1-1.3-.2 0-1.3.1-2.7.3-4 .1-1.4.4-2.6.5-4 .4.1.8.1 1.3.2.6.1.9.3 1.1.7l1.2 1.8c.5.3.9.9 1.4 1.5h0zm-7.7-.3c.3.5.7 1.1 1.1 1.6.3.4.4.7.4 1s-.2.5-.5.7-.6.2-1 .2c-.3 0-.6-.3-1-.7l-1.9-2.9c-.1.7-.1 1.4-.1 2 0 .7-.5.9-1.4.8-.4-.1-.9-.1-1.3-.2l.3-4 .6-4.1c.4.1.9.1 1.3.2 1 .1 2 .3 3 .5.7.1 1.3.5 1.7 1 .4.6.6 1.2.5 1.8-.3 1.1-.8 1.8-1.7 2.1h0zm-2.5-3.5c-.1.6-.2 1.2-.2 1.8.3 0 .5.1.8.1.8.1 1.1-.1 1.3-.7.1-.6-.3-1-1-1.1-.4 0-.6-.1-.9-.1zm-17.3-2.5c.8.1 1.2.5 1 1.1-.1.6-.6.8-1.4.8-.3 0-.5-.1-.8-.1l.3-1.9c.4 0 .6 0 .9.1z" class="AN"/><path d="M163.3 272c1.4.2 2.4.9 3.2 1.8s1.1 2 1 3.2c-.1 1.1-.7 2.1-1.7 2.7-.9.7-2.1.9-3.5.7s-2.6-.8-3.4-1.7c-.9-.9-1.3-2-1.2-3.2.2-1.1.9-2.2 1.9-2.8s2.3-.9 3.7-.7h0z" class="AQ"/><path d="M163.2 272.3c1.3.2 2.4.8 3.1 1.7.7.8 1 1.9.9 3s-.7 2-1.6 2.6-2 .9-3.3.7-2.4-.8-3.3-1.7c-.8-.8-1.2-1.9-1.1-3s.8-2 1.8-2.6c1-.7 2.2-1 3.5-.7h0z" class="AN"/><path d="M160 278.1c-.2-.5-.3-1.1-.3-1.7h0v-1.5h.3c-.1-.1-.2-.2-.3-.2.5-.2 1.1-.2 1.4-.2-.2-.2-.4-.4-.8-.5.6 0 .9-.1 1.3-.1.3.1.5.2.6.3-.3-.4-.4-.6-.9-1.1.9.1 1.6.3 2.3.5l.5.7c-.1-.3-.3-.7-.5-1 .3.2.6.5.9.7.2.3.2.5.3.7.1-.1.1-.3.2-.5.1.2.3.4.3.7-.1.2-.1.3-.2.3.3 0 .5-.1.7-.3 0 .2-.1.5-.1.7-.1.1-.3.1-.3.2h.3c-.1.1-.1.2-.2.3 0 .2-.1.3-.1.4v.6h-.1c-.1.5-.4 1.1-.6 1.5l-.1.1c-1.1.9-3.4.6-4.6-.6 0 .1 0 0 0 0z" class="AL"/><path d="M160.2 278.1c-.1-.4-.3-1.1-.3-1.6l.4.1c0-.3.1-.5.1-.8.1 0 .2-.1.4-.1-.2-.1-.2-.2-.3-.3h.4c.4.1.9.3 1.4.6-.2 0-.4-.1-.6 0 .4.2.7.2 1.1.3.8.1 1.6-.1 2.2-.4 0 .1.1.1.1.3-.1.1-.2.2-.4.2.2.1.2.2.4.2v.8l.4.1c-.1.5-.4 1-.6 1.4-1.2.7-3.3.4-4.3-.6l-.4-.2z" class="AU"/><path d="M162.5 277c-.2 0-.3-.2-.4-.2-1-.3-2.3-.5-3.1-.5-.1 0-.2.3 0 .4.1 0 .1.1.2.1.1.3.1.4.1.7 0 .2.1.3.3.5.4.2 1.4.6 1.8.6.2 0 .6 0 .7-.1.1-.2.2-.5.3-.8 0-.2.3-.1.4.1 0 .2.1.6.1.8.1.3.4.3.6.3.4.1 1.4.1 1.8 0 .2 0 .3-.1.4-.4.1-.2.1-.4.3-.6h.1c.2 0 .2-.3.1-.4-.8-.2-2.1-.4-3-.4-.3-.2-.4-.1-.7-.1h0z" class="AR"/><path d="M159.4 276.8c0 .2.1.4.1.6s.1.4.3.5c.5.3 1.1.4 1.6.5.1 0 .4.1.5-.1s.3-.6.3-.9c0-.1 0-.2-.1-.2-.7-.2-1.8-.4-2.5-.5-.1 0-.1 0-.2.1h0zm6.2.8c0 .2-.1.3-.2.6-.1.2-.2.3-.4.4-.5.1-1.1.1-1.7 0-.1 0-.4 0-.5-.2-.1-.3-.1-.7-.1-.9 0-.1 0-.2.2-.2.7 0 1.8.1 2.5.2.1 0 .1.1.2.1h0z" class="AN"/><path d="M211.2 289.5c.6.2 1 0 1.1-.6.1-.3.1-.6.2-.9l-2.6-.9c0-.4.1-.8.2-1.1.5.2 1 .3 1.4.5.6.2 1 0 1.1-.6.1-.3.1-.6.2-.9l-2.4-.8c0-.4.1-.8.2-1.2.6.2 1.1.4 1.7.5.6.2 1 0 1.1-.6.1-.3.1-.6.2-.9l-4.9-1.6-.8 4c-.3 1.3-.5 2.6-.6 3.9 1.1.4 2.5.8 3.9 1.2h0zm-22.1-5l-3.9-.4c-.1-1.3-.1-2.7-.1-4.1l.1-4.1 4 .4c1.4.3 2.4 1.2 2.9 2.6.2.7.4 1.3.4 1.9s-.2 1.3-.4 1.9c-.6 1.2-1.5 1.8-3 1.8zm.9-4.1c0-1.6-.6-2.4-1.8-2.6-.1 0-.3 0-.5-.1 0 .8-.1 1.6 0 2.5v2.4c.1 0 .3 0 .5.1 1.2 0 1.8-.8 1.8-2.3zm9.5 3.7c0 .8-.4 1.2-1.1 1.5-.7.2-1.5.3-2.3.1-.9-.2-1.7-.5-2.4-.9-.7-.5-1-1.1-1-1.9l.2-3 .3-3c.4.1.9.1 1.3.2.9.1 1.2.6 1.1 1.3s-.2 1.5-.2 2.3c-.1.7-.1 1.5-.2 2.3 0 .5.2.7.8.9.6.1.9 0 .9-.5l.2-2.8c.1-.9.1-1.9.3-2.8.4.1.8.1 1.2.2.8.1 1.2.6 1.2 1.3l-.2 2.5-.2 2.4.1-.1zm4 3.7l-3.7-1 .5-4 .6-4 3.7.9c1.3.5 2.1 1.5 2.4 2.9.2.6.2 1.3.1 1.9s-.3 1.2-.6 1.7c-.7 1.4-1.7 1.9-3 1.6h0zm1.4-3.8c.2-1.5-.3-2.4-1.4-2.8-.1 0-.3-.1-.4-.1l-.3 2.4-.3 2.3c.1 0 .3.1.4.1 1.2.2 1.8-.4 2-1.9h0z" fill="#fde049"/><path d="M215.3 301.9l-7 5.1 6.2-2.3z" class="AP"/><linearGradient id="X" gradientUnits="userSpaceOnUse" x1="257.41" y1="288.7222" x2="227.1017" y2="307.9523"><stop offset="0" stop-color="#fad395"/><stop offset="1" stop-color="#e5895b"/></linearGradient><path d="M242.3 268.4l20.6 32.4s-3.9 24-15.2 21.5-28.2-35.8-28.2-35.8l22.8-18.1z" fill="url(#X)"/><linearGradient id="Y" gradientUnits="userSpaceOnUse" x1="107.7255" y1="262.6892" x2="128.4187" y2="224.4381"><stop offset="0" stop-color="#c63"/><stop offset="1" stop-color="#ff9701"/></linearGradient><path d="M139.7 241.8s-12.7 13.5-8.3 30.7c1.3 4.9-23.5-13.6-35.7-23.7-1.1-.9-5.5-.5-6.4-1.2-2.3-1.9-.3-4.3-.3-4.3s18.6-8.9 23.7-21.9c0 0 2.7-2 5.6.2.8.6 1 4.7 2 5.5l19.4 14.7z" fill="url(#Y)"/><path d="M218.9 295.2s.9-39.9 9-41.8c3.9-.9 10.8 6.9 16.9 15.4l8.8 12.2c.3.4 2.6 1.8 4.1 2.5 1 .5 1.4 1.8.7 2.7-3.3 5-13.6 18.9-28.9 22.5-.5.1-.5-2.4-2.6-4.6-3.6-3.8-8-8.9-8-8.9z" class="AL"/><path d="M223.2 153.9l1.4-1.6s3.8 3.6 3.1 6.5-1.9 23.3 1.9 31.5c0 0-10.1-1.1-12.3-4-2.3-2.8 5.9-32.4 5.9-32.4z" class="AU"/><path d="M175.2 206.5s7.8 6.6 15 8.9 26.2 7.5 26.2 7.5-.7 3.7-3.6 3.7-26.9-6.7-29.8-8.3-7.3-7.8-7.8-11.8z" class="AN"/><path d="M199.1 114.9l-3.2-10.3s20.7 3.6 16.4 24.3l-6.4-4.1-6.8-9.9z" class="AO"/><linearGradient id="Z" gradientUnits="userSpaceOnUse" x1="-5530.0513" y1="357.442" x2="-5491.4683" y2="357.442" gradientTransform="matrix(-0.8884 -0.4591 -0.4591 0.8884 -4542.3037 -2728.4216)"><stop offset="0" stop-color="#b85a1b"/><stop offset="1" stop-color="#7f3e13"/></linearGradient><path d="M209.3 122.5s-.2-5.2-5.7-7.8-24.8-6.2-36.2 4.8c0 0 12.2-2.9 22.2-1.9l-1.4-2.8c0 0 13.4-.4 21.1 7.7z" fill="url(#Z)"/><path d="M5.3 149.3s13.1 34.7 30.3 35.9c41.8 2.8 47.6-49.5 47.6-49.5S94 99.4 64.8 104.6c-28.9 5.2-59.5 44.7-59.5 44.7z" class="AM"/><path d="M56.5 142.2s16.1-9.2 18.7-16.3c0 0-22.4-51-28-67.7-.5-1.4-4.2-9.1-18.6-9.2-7.4-.1-13.8 4.9-15.5 12.7v.1c-.9 4.2-.4 8.7 1.5 12.6L31.9 112l12.2 9.2c.1-.1 12.8 20.4 12.4 21z" class="AL"/><linearGradient id="a" gradientUnits="userSpaceOnUse" x1="16.7218" y1="95.2347" x2="70.6507" y2="95.2347"><stop offset="0" stop-color="#e5895b"/><stop offset="1" stop-color="#fad395"/></linearGradient><path d="M57 136s11.7-6.7 13.6-12.8L45.2 65c-1.4-3.6-4.1-6.7-7.5-8.6l-.1-.1c-9.9-5.3-22 .6-20.8 12.3.3 3.2 18.2 39.9 18.2 39.8l10.7 8.6c0 0 11.6 18.5 11.3 19z" fill="url(#a)"/><g class="AL"><path d="M10.3 157.8l-.1 4.6s4.5 6.8 10.4 6.6c5.9-.3 9.6-4.2 9.6-4.2l-7.7-9.5-12.2 2.5z"/><path d="M3.5 141.7c4.6-13.1 18.3-29.4 25.8-35.9h.1v-1.2c17 6.3 32.4 19.7 36 37.6-.3.1-.5.2-.7.4-7.6 9.5-14.8 20.9-27.5 27.4-3.4-.9-5.1-2.1-7.7-3.7-3 .1-8.4-.9-10.5-7.5l-3.8-1.2-.8 4.4-4.2.5C7 156 5.4 151.4 3.5 141.7z"/></g><path d="M18 104.4h0zM7.4 142.5c2-4.3 4.5-8.5 7.1-12.5 5.7 1 11.7 3.2 16.5 6.9 3.5 2.9 12.7 15.1 16.4 20.8-3.5 3.7-7.1 6.6-11.1 8.3-6.7-3.3-11.4-7.4-16.6-15.2 1.6 4.9 3.5 8.7 6.5 12.3-2.9 3.1-8.4 3.5-10.9.7l-.9-1.8h-.1c-2.9-6.3-5.2-12.2-6.9-19.5zm9.1-15.1c4.5-6.2 9.6-12.1 15.3-17.7 4.6 2.6 12.1 7.1 17.2 12.6 2.4 2.8 9 14.4 11.4 18.9-3.8 5.2-7.4 10.2-11 14.4-4.1-6-13.5-18.5-16.8-21.1-4.8-3.6-10.5-5.9-16.1-7.1z" class="AM"/><linearGradient id="b" gradientUnits="userSpaceOnUse" x1="-3100.5701" y1="715.4452" x2="-3100.4614" y2="715.7404" gradientTransform="matrix(-63.5425 14.4284 -10.5109 -46.2898 -189468.9219 78005.3281)"><stop offset="0" stop-color="#e5895b"/><stop offset="1" stop-color="#fad395"/></linearGradient><path d="M7.4 142.5c2-4.3 4.5-8.5 7.1-12.5 5.7 1 11.7 3.2 16.5 6.9 1.3 1 3.3 3.3 5.5 6-3.4 3.6-6.8 7.2-10.1 11.1-2.3-2.9-4.3-5.1-7.4-8.6-3.4-1.6-6.6-2.2-11.6-2.9h0z" fill="url(#b)"/><linearGradient id="c" gradientUnits="userSpaceOnUse" x1="-3100.8235" y1="715.6722" x2="-3100.6985" y2="716.0117" gradientTransform="matrix(-63.5425 14.4284 -10.5109 -46.2898 -189468.9219 78005.3281)"><stop offset="0" stop-color="#e5895b"/><stop offset="1" stop-color="#fad395"/></linearGradient><path d="M16.5 127.4c4.5-6.3 9.7-12.1 15.3-17.7 5.6 3 12.2 7.3 17.2 12.6 1.4 1.8 2.4 3.5 3.5 5.2-4.5 4-9.3 8.6-14.1 13.5-2.5-3-4.6-5.4-5.9-6.4-4.9-3.6-10.6-5.9-16.2-7.1l.2-.1z" fill="url(#c)"/><path d="M19 157.5l.7-6.5v-.3s2.6 13 17.4 19.3l-16 5.3s-8.6-9.9-11.2-24.3" class="AM"/><path d="M63.3 142.7s1.8-.9-2.5-6.8c0 0-12.9 4-15.1 1.1-2.1-2.9-13.9-30-7.2-34.8S68.2 91 73.4 94.5c5.1 3.5 13 8.3 15.3 21.8 2.2 13.4-5.3 29.8-5.3 29.8s-18.1-.7-20.1-3.4z" class="AL"/><path d="M64.7 144.8s2.5-8.1-1.2-13.3c0 0-13.4 5.6-15.3 3.1-1.9-2.6-11.6-25.1-5.4-29.6 6.3-4.5 24.1-9.5 28.7-6.4 4.6 3 11.7 7.1 13.4 19.2 1.7 12-5.6 36.5-5.6 36.5s-12.9-7.1-14.6-9.5z" class="AM"/><linearGradient id="d" gradientUnits="userSpaceOnUse" x1="59.7718" y1="146.7271" x2="66.0424" y2="92.3809"><stop offset="0" stop-color="#e5895b"/><stop offset="1" stop-color="#fad395"/></linearGradient><path d="M80.6 148s.2-18.7-4.4-25.9c-4.6-7.3-32.8.6-32.8.6s-4.7-9.7-1.6-17c0 0 13.3-9.8 28.5-7.7 0 0 13.8 4.7 14.8 20.3 1.1 15.5-4.5 29.7-4.5 29.7z" fill="url(#d)"/><path d="M9.5 150.9l-4.3-1.6s11 42.8 34.4 39c0 0 11.8-2.7 19-8.8 0 0-14.9 3.7-20.4 3.7-5.4-.1-16.2 4-28.7-32.3zm99.3 66.9s2.2 3.8 1.3 5.9c-.8 2.1-9.2 16.1-23.5 17.5l-1-.9s-1.1 4.7 3.9 3.7c5-.9 15.4-7.3 17.8-10.3 6.4-7.8 10.8-15.3 1.5-15.9zm10.6 21.7c.5.2 4.9-8.7 15.8-7s13.4 5.5 13.4 5.5-11.5 4.1-16 10.2l-13.2-8.7z" class="AL"/><path d="M133.8 285.4l-.6-11.3s-2.3-14.8 2.7-26.4c0 0-8.2 10.9-4.9 29l2.6 37.8 1.5.1-1.3-29.2z" class="AP"/><linearGradient id="e" gradientUnits="userSpaceOnUse" x1="115.6195" y1="266.9598" x2="136.3127" y2="228.7086"><stop offset="0" stop-color="#c63"/><stop offset="1" stop-color="#ff9701"/></linearGradient><path d="M116.9 241.1c.5.2 6.9-7.1 17.7-5.4 10.9 1.7 9.1 2.9 9.1 2.9s-7.8 6.3-10.2 14l-16.6-11.5z" fill="url(#e)"/><linearGradient id="f" gradientUnits="userSpaceOnUse" x1="216.8859" y1="280.0504" x2="255.6481" y2="280.0504"><stop offset="0" stop-color="#c63"/><stop offset="1" stop-color="#ff9701"/></linearGradient><path d="M229.7 255.9c-2.5-1.2-8.9-2.8-12.8-1.9 0 0 6.9 4.2 3.1 22.6l-.2 4.2c-.6 6-.6 12.2-.6 12.2s6.1 5.4 9.1 9.6c.7 1 2.1 4 2.4 3.9 14.1-3.2 22.3-15.2 24.7-19.5.5-.8.3-1.9-.5-2.5-1.2-.9-2.7-2-2.9-2.3-5-8-16-24.2-22.3-26.3z" fill="url(#f)"/><path d="M224 268s15.1 19.8 19.8-.4c0 0-2.2-3.6-5.6-8.2-3.9-5.3-10.8-9-17.4-8.3-2.5.3-3.8.1-6.3.8 0 .1 11.5 2 9.5 16.1z" class="AL"/><path d="M26.2 55s8.9-.4 14 11.9S53 96.2 53 96.2l5.3-1.2-13.1-31.7s-4.8-11.4-19-8.3z" class="AU"/><linearGradient id="g" gradientUnits="userSpaceOnUse" x1="230.9636" y1="279.3095" x2="229.1262" y2="258.4857"><stop offset="0" stop-color="#c63"/><stop offset="1" stop-color="#ff9701"/></linearGradient><path d="M220.4 275.5s16.5 10.1 21.6-5.5c0 0-3.4-10.7-15.6-15.8 0 0-4.3-1.8-9.7-.4.1 0 5.7 7.6 3.7 21.7z" fill="url(#g)"/><path d="M253.2 283.3s-3.4 11.1-24 20.7" fill="none" stroke="#b85a1b" class="AS AW AX"/><path d="M219.9 278.3s3.3 6.9 6 10.7c1.1 1.6 8.7 7.1 19.2 11.8.3.1-14.4 6.8-14.4 6.8l-11.7-14 .9-15.3zm21.3-12.4s-1 10.5-13.5 9c0 0 8.2 4.6 12.2 0 4.1-4.6 2.8-7.8 2.8-7.8l-1.5-1.2z" opacity=".3872" class="AL"/><path d="M118.9 222s-4.7 20.2-27.6 26.5" fill="none" stroke="#b85a1b" class="AS AW AX"/><path d="M88.6 239c.4 0 3.6 2.5 3.6 2.5s-2.2 1.3-3.5 1.5c-1.4.3-.1-4-.1-4z" fill="#663010"/><g class="AL"><path d="M97.8 238.6s-.4 4.3 3.9 5.7c4.3 1.5 22.9 16.9 28.8 17.7 0 0-.4 9 .2 12.3 0 0-25.5-14.5-30.5-19.8l-5.3-4.1s-4.6 1.4-7-2.6-.9-4.6-.9-4.6 7.9-1.5 10.8-4.6z" opacity=".3872"/><path d="M116.5 265.7s5.2 3.1 7.7 1.6 9.2-15 9.2-15-2.5 7.2-3 11.6.1 10.7.1 10.7-12.2-5.3-14-8.9z" opacity=".57"/><path d="M219.8 281.3s1.5 12.6 4.2 17.2l-5.3-3.8 1.1-13.4z"/></g><path d="M117.7 240.9s6.2-6.3 15-5.5c8.9.8 11.2 2.8 11.2 2.8l-4.6 4.6s-5.7-5.5-21.6-1.9zm99.2 12.8s12.6-4.5 23.9 13.8c0 0-10-11.2-22.2-10.1l-1.7-3.7z" fill="#f99c38"/><path d="M156.4 136l-25.5-14.2 2.4 9.4 3.8 2.1 2.3 6 15.6 10.4z" class="AR"/><path d="M156.2 138.8l-1.1 5.4-14.9-9.3-1.2-2.6-3.1-2c-1.1-.9-.8-2-1.5-4.6l21.8 13.1z" fill="#3c3c3c"/><linearGradient id="h" gradientUnits="userSpaceOnUse" x1="223.8758732" y1="132.67643997" x2="204.91485113" y2="184.2877874"><stop offset="0" stop-color="#fff"/><stop offset="1" stop-color="#fff" stop-opacity="0"/></linearGradient><path d="M221.1 156.6c.5-2.2-.6-3.8-2.6-4.5-16.7-6.6-39.2-12.6-57-14.4-1.4-.2-2.8.7-3.5 1.8 30.1 14.2 45.9 31.4 52.6 40.2.1-.1.3-.2.4-.2 4.7-3.3 8.8-17.2 10.1-22.9h0zm45.5 30c.2-.2.3-.4.5-.7 2.7-4.5 5.6-13.6 7.1-18.9.4-1.5-.4-3-1.9-3.5-11.2-3.9-22.9-6.5-34.9-6.8-2.3-.1-3.2 1.5-3.8 3.3-.3.9-.5 1.7-.8 2.6 17.2 7.6 26.6 16.3 33.8 24h0z" fill="url(#h)"/><path d="M236.1 190c7.5 2.1 17.9 3.8 25.2 2.3 3.2-.6 5.8-1.8 7.1-3.7 3.8-5.3 7.1-16 8.2-20.6.1-.5 1.3-.9 2-1.3 1.1-.6 2.2-4.1 2-5.3-15-6.2-29-9.7-43.4-9.8-1.8 0-3.7.5-5.5.9-1.9.5-4.9-.3-6.4-1.9-2.1-2.5-3.6-2.9-6.5-4-20-8.1-47.1-14.5-66.8-15.8-.8 1.8-1.6 4.4-.9 6.4.3.9 3.3 2.4 3.1 3.3-.9 5.8-1.6 11.1-1.1 15.5 1 8.1 7.6 12 14.7 15.3 15.5 7.1 39.9 13.6 44.7 10.3 4.7-3.2 8.8-14 11-22.8 2.8-1.2 5.1-.8 6.7 1.3-1.2 4-2.7 8.9-3.2 13.6-.9 8.6.4 13.8 9.1 16.3h0zm-15.9-33.5c-1.6 7.3-5.7 19.5-9.8 22.2-4.3 3-38.8-7.6-49.5-15.5-6-4.4-4.3-13.8-2.5-22.6.3-1.3 1.7-2.2 2.9-2.1 17.6 1.8 40.1 7.8 56.8 14.4 1.7.6 2.5 1.8 2.1 3.6h0zm11.9 11.6c.7-2.8 1.5-5.4 2.3-7.8.6-1.7 1.2-2.8 2.9-2.7 11.8.2 23.3 2.9 34.7 6.7.9.3 1.7 1.3 1.4 2.5-1.4 5.1-4.4 14.4-7 18.6-.8 1.4-2.5 2.2-4.7 2.8-7.7 1.9-21.2-.5-28-3.1-2.2-.9-3-3.2-3.1-6-.3-3.8.9-8.5 1.5-11z" class="AR"/><path d="M275.1 167.2c.5-1.9-.8-3.5-2.5-4.5-5.9-3.4-21.6-8.4-35.4-9.2 14.6.1 28.5 3.6 41.5 9.2-.9 4.3-2.4 2.3-3.6 4.5h0zm-50.7-10.5c-1.1-1.9-2.2-3.8-5.3-5.4-14.5-7.4-40.4-13.5-51.8-16.8 17.3 2.6 36.4 7.8 50.9 13.9 2.2.9 3.7 1.1 5 2.7 1.4 1.7 1.4 3.5 1.2 5.6zm43.2 29.8c-4.9 7.8-24.4 3.5-30.7 1.3-1.4-.5-2.7-.9-3.7-1.5 7.2 2.8 28.7 7.1 34.4.2zm-67.4-6.9c-10.1-1.9-34.4-9.1-41-16 7.3 5.7 30.5 13.7 41 16z" fill="#3c3c3c"/><path d="M232.6 188.7c-2.9-4.1-8.4-11.9-6.3-24.6-2.6 7.9-1.8 21.1 3.2 26.7 1.5-.1 2.4-.8 3.1-2.1z" class="AT"/><path d="M232.6 188.7c-2.4 1.9-5 1.1-7.4.1-2.3-1-4.4-2.6-6.6-3.8-2.4.2-4.2 1.4-5.8 3.4 3.9 2.6 8.4 5.1 12.9 6 3.6.1 7.3-2.9 6.9-5.7z" class="AM"/><path d="M236.3 187.9c-6.2-6-10.2-17.5-8.5-27.2.3-1.7-.7.4-.9 1-3.7 11.1.6 21.7 5.6 27 .1 2.2-4.1 5.3-6.9 5.7 4.3.8 8.5-1.3 10.7-6.5h0zm25.4 111s2 4.4-1.3 10.6c0 0 5.5-6.4 4-11.2l-1.6.8-1.1-.2zM90.9 197.2s1.7 9.5-.1 13.4c0 0 3.1-7.1 2.9-10l-2.8-3.4z" class="AL"/><path d="M145.1 235.5l13.3 1.5 1.2 1.6h-13.2zm58.6 15.5l13.2 2.9c.1-.1 2.9-.8 2.9-.8l-2-1.6-13.5-2.5-.6 2z" class="AP"/><g class="AM"><path d="M255.8 289.8s-6.8 13.3-14.6 17.2c-7.8 3.8-7.4 3-7.4 3l-1.5-2c0-.1 13.2-4.2 23.5-18.2z"/><path d="M239.3 306.1s0 8.8 3.4 11.6 10.3 4.6 10.3 4.6-3.4.8-5 .3c-.9-.3-2.7-1.4-4.2-2.3-1.3-.8-2.5-1.9-3.5-3L234 310l3.6-2.4 1.7-1.5z"/></g><defs><path id="j" d="M289.3 272.3s3.7-4.2 5.1-5.1c1.3-.9 13.7-5.6 13.7-5.6s-4.5-7.6-7.8-9.6c0 0-8.2 1.5-14.6 4.8 0 0-1.5 6.6 3.6 15.5z"/></defs></svg>