<svg xmlns="http://www.w3.org/2000/svg" viewBox="0 0 179.88 107.89"><defs><style>.a{fill:#fd7d79;}.b{fill:#f9c69d;}.c{fill:#f7f8f9;}.d{fill:#f7f6f5;}</style></defs><title>Asset 17</title><path class="a" d="M54.28,81.05c-.07,6.49-.16,13-.21,19.46s-.92,7.31-7.09,7.34c-4.33,0-8.66,0-13,0-5.9,0-6.89-1-6.9-7q0-42.91,0-85.85C26.86,7.35,32.13,1.81,41.2.13,67.65.08,94.11,0,120.56,0c9.82,0,17.55,4.35,23.28,12.34s11.69,16.08,17.59,24.19c2.22-2.07,4-4.28,6.56-5.67,3.94-2.16,7-.69,7.31,3.78.25,3.81.06,7.64.09,11.47,0,5.09-.68,10.23,3.21,14.63,1.65,1.87,1.41,4.62.88,7.19-1.9,9.27-3.69,18.57-5.51,27.86-1.2,6.1-4.6,10.35-10.77,11.69s-10.62-1.41-14-6.39c-3.08-4.55-6.07-9.15-9.29-13.59-3.57-4.92-5.77-10.37-4.81-16.34,1.27-7.86-3.22-12.14-9.11-16.86V96.72c0,11.13,0,11.13-11.28,11.13-3.16,0-6.33-.09-9.49,0-4.51.17-6.27-2-6.24-6.38.05-6.82-.11-13.63-.18-20.45-1.9-3.15-1.94-7-3.77-10.2-4.15-7.37-10.52-11.12-18.78-11S61.61,63.54,57.8,71.29C56.25,74.45,56.13,78.05,54.28,81.05Z"/><path class="b" d="M54.28,81.05A21.88,21.88,0,0,1,76.35,58.28c13,.21,22.82,10,22.46,22.77C97.27,82.3,95.9,84,94.14,84.69,90.6,86.14,89.56,88.56,90,92.1c.42,3.31-.4,6.32-4.24,6.52-3.52.18-4.82-2.49-4.7-5.68.15-3.9-2.59-3-4.77-3.06s-4.56-.38-4.25,3.05-1.19,5.77-4.58,5.7-4.89-2.95-4.33-6C64.48,85.29,57.32,84.82,54.28,81.05Z"/><path class="b" d="M41.2.13C34,2.67,29.15,7.52,27.07,15c-5.77,2-6.73,6.92-6.86,12-.22,9.3,0,18.61-.11,27.92C20,63.65,12,71.77,3.78,71.9c-2.35,0-3.63-.38-3.73-3.2C-.2,61.88.37,55.37,5.48,50.19c1.45-1.47,1.58-3.17,1.58-5,0-6.48,0-13,0-19.44C7.14,10.54,17.64,0,32.73,0,35.55,0,38.37.08,41.2.13Z"/><path class="c" d="M76.89,18c7.32,0,14.63,0,21.94,0,3.77,0,6.92,1,8.64,4.63s-1,5.8-3.09,8.14c-6.5,7.21-14,12.86-24,14C65.33,46.37,54.71,38.62,46,27.49c-3.07-3.94.81-9.26,6.92-9.44,8-.23,16-.06,23.93-.06Z"/><path class="d" d="M166.39,76.6c-.27,2.73-1.81,4.21-4.51,4.2a4,4,0,0,1-4.28-4.38c0-2.86,1.69-4.65,4.71-4.43C165,72.19,166.35,73.9,166.39,76.6Z"/></svg>