<svg id="Layer_1" data-name="Layer 1" xmlns="http://www.w3.org/2000/svg" viewBox="0 0 582.02 245.16"><defs><style>.cls-1{fill:#292b2f;}.cls-2{fill:#ea1b5c;}.cls-3{fill:#fff;}</style></defs><title>ntplogo</title><path class="cls-1" d="M342.42,224q-1.4-1.44-3-3t-3-3l-2-1.93q-.18-.18-.68-.59t-1.08-.81l-1.08-.76-.76-.54c-.18-.12-.53-.31-1-.58s-1.05-.54-1.62-.81l-1.62-.77-1.12-.54-1-.36q-.72-.27-1.57-.54l-1.66-.54c-.54-.18-.93-.3-1.17-.36l-.45,0-.45,0v1.71q.27.63.9,2.29t1.35,3.51q.72,1.85,1.35,3.56t.9,2.34q.18.45.45,1.3t.59,1.71q.31.86.54,1.57a6.46,6.46,0,0,1,.23.81q.09.45.22,1.94t.14,1.94q-.18,0-1.08-.09a4.46,4.46,0,0,1-1.08-.18,3.21,3.21,0,0,1-.9-.9q-.45-.9-1.57-3.06t-2.43-4.59q-1.31-2.43-2.47-4.63t-1.62-3a1.86,1.86,0,0,0-.36-.54q-.36-.45-.76-1t-.86-1.17a9.58,9.58,0,0,0-.72-.85l-4.5-5.4-.9-1.31a14.15,14.15,0,0,1-.9-1.39q-.45-.72-1.13-2.07a8.07,8.07,0,0,1-.67-1.53q0-.09,0-1.21t0-1.75q0-.63,0-1.89t0-1.44a11.48,11.48,0,0,1,.36-1.17q.36-1.08.54-1.53.09-.27.67-1.49t1.17-2.56q.58-1.35,1.12-2.56t.63-1.49c.06-.48.09-.78.09-.9a3.83,3.83,0,0,0,0-.49,3.57,3.57,0,0,1,0-.4l-.9-1.8-9-13.5a28.67,28.67,0,0,0-2.7-2.7,3.47,3.47,0,0,0-.5.9q-.32.72-.4.9l-1.8,4.5q-.18.45-.58,1.4t-.86,1.94q-.45,1-.81,1.84c-.24.57-.39.95-.45,1.13q-.45.9-1.26,2.7t-1.67,3.65l-1.57,3.42q-.72,1.58-.9,1.94-.54,1.08-1.57,3.19L281,195.22q-1.31,2.66-2.79,5.58l-2.83,5.58q-1.35,2.66-2.38,4.77t-1.57,3.1q-1.53,3.15-3.42,6.3a69.95,69.95,0,0,1-8.73,11.61,43.49,43.49,0,0,1-4.95,4.59,10.75,10.75,0,0,1-3.28,2.16,33.79,33.79,0,0,1-4.36,1.57,32.49,32.49,0,0,1-4.68,1,31.3,31.3,0,0,1-4.14.32,66.5,66.5,0,0,1-8.68-.54,25.33,25.33,0,0,1-8.05-2.52q-.54-.27-1.66-.9t-2.43-1.4L214.62,235q-1.13-.67-1.66-.94l-3.78-3.74q-2.7-2.65-5.71-5.67t-5.67-5.72l-3.73-3.78q-.27-.27-.9-1l-1.35-1.62-1.35-1.62q-.63-.76-.9-1.12a6.34,6.34,0,0,0-.13,1.31c0,.69,0,1.16,0,1.4s0,.89,0,1.58a3.38,3.38,0,0,0,.13,1.12,1.77,1.77,0,0,0,.41.72l.85,1.12q.45.59.9,1.13c.3.36.48.57.54.63l.9,1.8c0,.06,0,.21,0,.45a4.91,4.91,0,0,1,0,.54,8,8,0,0,1-.09.81,5.54,5.54,0,0,1-.76.85,11.1,11.1,0,0,1-1,.94,3.46,3.46,0,0,1-.9.5l-.9.41-.94.27c-.45.12-.92.22-1.39.31s-.93.17-1.35.22a7.6,7.6,0,0,1-.81.09h-.54q-.45,0-1.08,0c-.42,0-.84,0-1.26,0h-2.07c-.42,0-.85,0-1.3,0s-.86,0-1.22,0H177l-9-.9-5.4-.9q-.54-.09-1.94-.22l-3-.27-3-.27q-1.44-.13-2-.14a3.21,3.21,0,0,1-.9-.9,2.63,2.63,0,0,1-.09-.45,2.68,2.68,0,0,1,.09-.45,3.21,3.21,0,0,1,.9-.9q.63-.36,2.25-1.22t3.51-1.71q1.89-.85,3.55-1.57a18.25,18.25,0,0,1,2.38-.9,8.8,8.8,0,0,1,1.62-.09q1.35,0,2.88,0t2.79,0h1.71a2.48,2.48,0,0,0,1-.36,2.09,2.09,0,0,0,.76-.54c.06-.84.09-1.38.09-1.62s0-.6,0-1.08,0-.78,0-.9a15.9,15.9,0,0,0-.22-1.76q-.23-1.39-.54-3.1t-.59-3.37q-.27-1.66-.45-2.57-.09-.63-.36-2t-.54-2.79q-.27-1.44-.54-2.66t-.36-1.57a13.63,13.63,0,0,1-.45-1.49,3.6,3.6,0,0,0-.45-1.22l-.81-1.17-1.39-2q-.77-1.08-1.44-2t-.85-1.17l-.59-.9q-.41-.63-.81-1.35t-.81-1.35a4.8,4.8,0,0,1-.5-.9l-7.2-14.4-.9.9a8.91,8.91,0,0,0-.54,1.4l-1,3q-.59,1.71-1.17,3.51t-.85,2.88a14.76,14.76,0,0,0-.5,1.84q-.32,1.4-.81,3.24t-1,3.91q-.5,2.07-.94,3.91t-.81,3.24q-.36,1.4-.45,1.84l-4.5,15.3-5.4,20.7q-.09.36-.36,1.13t-.54,1.62q-.27.86-.54,1.62c-.18.51-.3.85-.36,1s-.18.47-.36.86l-.54,1.17a10.69,10.69,0,0,1-.54,1,3.79,3.79,0,0,1-.36.54l-.63.67q-.45.5-1,1.08T131,240.49l-.81.77a4.32,4.32,0,0,1-.76.4l-1,.5a5.37,5.37,0,0,1-1.31.45,8.4,8.4,0,0,0-1.39.45l-2.07.54a12.64,12.64,0,0,1-1.53.36q-.63.09-3,.23l-5.08.27-5.08.27q-2.39.14-3,.13a8,8,0,0,0-1.17.18q-.9.18-2,.31l-2,.27a10.37,10.37,0,0,1-1.17.13l-1.35,0q-1.17,0-1.8,0l-1.58,0-1.58,0a3.21,3.21,0,0,1-.9-.9,4.06,4.06,0,0,0,0-.41,3.54,3.54,0,0,1,0-.49q0-.18.09-.9a8,8,0,0,1,.86-.94,8.09,8.09,0,0,1,.95-.85c-.18-.06-.48-.14-.9-.23l-1.35-.27-1.35-.27a5,5,0,0,0-.9-.14h-1.8c-.18.06-.57.23-1.17.5l-2,.9-2,.9a4,4,0,0,1-1.17.4l-.63,0-1.26.09c-.48,0-1,0-1.44,0H76.16c-.42,0-.87,0-1.35,0l-1.35-.09-.9,0a12.77,12.77,0,0,1-1.8-1.8,2.63,2.63,0,0,1-.09-.45,2.68,2.68,0,0,1,.09-.45,3.22,3.22,0,0,1,.9-.9l2.7-.9a7.5,7.5,0,0,0,1.08-.4q.72-.31,1.44-.59t1.3-.54a3.35,3.35,0,0,1,.67-.27l1.26-.68L82.05,235l1.89-1.08a13.46,13.46,0,0,0,1.22-.77q1,0,3.06-.13l4.64-.31,5.4-.36q2.83-.18,5.4-.4t4.59-.36q2-.13,3-.22a15.75,15.75,0,0,0,1.75-.14l2.25-.27,2.07-.27a5.52,5.52,0,0,0,1.13-.22,2.17,2.17,0,0,0,.54-.23l1-.54q.58-.31,1.17-.59a6.68,6.68,0,0,0,.86-.45,2.21,2.21,0,0,0,.5-.4,2.23,2.23,0,0,0,.41-.5q.09-.18.41-1.21t.49-1.49q.18-.72.54-2.07a12.92,12.92,0,0,0,.36-1.53q.09-.54.22-2.3t.31-4.05q.18-2.29.41-4.91t.41-4.91q.18-2.29.27-4.05t.18-2.29a15.54,15.54,0,0,1,.13-1.58q.14-1.12.27-2.43t.27-2.47q.14-1.17.22-1.62l.9-5.4,3.6-14.4,1.8-8.1q.09-.45.41-1.8a14.92,14.92,0,0,1,.49-1.8,113.34,113.34,0,0,0,.72-12.69,108.63,108.63,0,0,0-.72-12.51,4,4,0,0,0-.36-.76q-.36-.68-.54-1a15.19,15.19,0,0,0-.9-1.39l-.9-1.3-3.6-4.5q-.27-.36-.95-1.39l-.85-1.31-.36-.67q-.27-.49-.54-1.08t-.54-1.08a5.05,5.05,0,0,1-.36-.76q-.09-.27-.36-.9t-.54-1.35q-.27-.72-.54-1.35c-.18-.42-.3-.72-.36-.9l-1.8-5.4-.9-3.6q-.09-.45-.27-1.17t-.31-1.44c-.09-.48-.17-.9-.22-1.26s-.09-.57-.09-.63v-1q0-1,0-2.2t0-2.47v-4q0-1.26,0-2.47t0-2.11V85.55a4.44,4.44,0,0,1,.09-.54c.06-.3.13-.64.22-1s.19-.78.31-1.17.21-.68.27-.86q.18-.72.58-2t.86-2.56l.81-2.34q.36-1,.45-1.21.27-.54.9-1.89t1.35-2.74q.72-1.39,1.35-2.66t.9-1.71a7.35,7.35,0,0,1,.63-.85q.54-.68,1.17-1.39t1.17-1.39a7.38,7.38,0,0,0,.63-.86q.27-.45.81-1.53t1.12-2.2q.58-1.12,1-2.11t.63-1.35q.18-.54.72-2.52t1.13-4.23q.58-2.25,1.08-4.23t.67-2.52a11.88,11.88,0,0,1,.5-1.71q.41-1.17.81-2.43t.81-2.39q.4-1.12.58-1.57t.86-1.8q.67-1.35.94-1.8l.68-1,1.08-1.67,1.08-1.66a7,7,0,0,1,.77-1l.76-1q.49-.67,1.08-1.39l1.08-1.3q.49-.58.68-.76.54-.63,1.75-1.84l2.52-2.52,2.38-2.38A18.21,18.21,0,0,1,158.06,10a9.36,9.36,0,0,1,.85-.67q.67-.49,1.57-1.08t1.71-1.08l1.26-.76a7.1,7.1,0,0,0,1-.5q.72-.4,1.57-.81l1.66-.81,1.17-.58,2.7-.9,2.07-.54a12.91,12.91,0,0,1,1.53-.36h.63c.36,0,.78,0,1.26,0s.93,0,1.35,0h2.16q.63,0,1.22,0c.39,0,.73,0,1,0h.45a7,7,0,0,1,1.21.36q1,.36,2.34.76t2.56.86l2,.72a2.73,2.73,0,0,1,.58.22q.49.23,1.08.54l1.13.59a8.07,8.07,0,0,1,.81.45l1.17.67q.72.4,1.44.86l1.26.76a4.87,4.87,0,0,1,.63.4l1.39,1.4q1,1,2.2,2.16t2.16,2.16q1,1,1.44,1.49a8.47,8.47,0,0,0,.59.85q.49.67,1.08,1.58l1.13,1.71q.54.81.81,1.26t.95,1.8q.67,1.35.85,1.8t.5,1.31q.31.86.58,1.71l.5,1.57a6.46,6.46,0,0,1,.22.81v.72c0,.36,0,.8,0,1.3s0,1,0,1.58v2.52q0,.81,0,1.62c0,.54,0,1,0,1.44v.72a8.34,8.34,0,0,1-.22,1.12q-.23.94-.54,2.07T212.51,46q-.27,1.13-.45,1.75t-.58,1.84q-.4,1.21-.81,2.52t-.81,2.39q-.4,1.08-.49,1.35t-.63,1.39q-.45,1-1,2.16l-1.12,2.16q-.54,1-.81,1.49-.45.72-1.44,2.38T202.16,69Q201,70.88,200,72.5t-1.39,2.25l-3.6,4.5a9.77,9.77,0,0,0-1.12,1.48,4.75,4.75,0,0,0-.68,1.21c0,.06,0,.32,0,.76s0,.8,0,1,0,.58,0,1,0,.71,0,.76a8,8,0,0,0,.31.76L194,87.4q.27.59.54,1.08a3.13,3.13,0,0,0,.45.68q.27.36,1,1.17T197.61,92q.85.86,1.62,1.57a14.85,14.85,0,0,0,1.12,1q.36.27,2,1.35t3.42,2.25l3.42,2.25q1.62,1.08,2,1.35a12.23,12.23,0,0,1,1.12,1q.85.81,1.84,1.84t1.93,2q.94.94,1.39,1.48a4.25,4.25,0,0,1,.54.9,3.2,3.2,0,0,1,.36.9v.63c0,.3,0,.66,0,1.08s0,.87,0,1.35V115q0,.63,0,1.26c0,.42,0,.81,0,1.17V118a2.09,2.09,0,0,1-.09.41l-.22.77a7.22,7.22,0,0,1-.31.85,7.24,7.24,0,0,0-.27.68,6.69,6.69,0,0,0-.45.85l-.54,1.17q-.27.59-.5,1a2.76,2.76,0,0,1-.31.54q-.18.18-.81,1t-1.4,1.71L212,128.66q-.67.81-.85,1a3.46,3.46,0,0,0-.5.9q-.32.72-.41.9.27,1,.9,3.55t1.35,5.45q.72,2.88,1.35,5.44t.9,3.55l1.8,8.1.9,1.8.94,1.53a4.86,4.86,0,0,0,.86,1.17q.27.27.76.81T221.1,164l1.08,1.08a3.58,3.58,0,0,0,.68.59,2.63,2.63,0,0,0,.45.09,2.69,2.69,0,0,0,.45-.09,3.22,3.22,0,0,0,.9-.9q.09-.9.36-3.06t.54-4.59q.27-2.43.54-4.63t.36-3q.09-.54.23-1.53l.27-2q.13-1,.27-1.8a9.18,9.18,0,0,0,.14-1q.18-1.08.9-4.59l1.58-7.69q.85-4.18,1.66-8.06t1.26-5.76q.18-1,.59-2.83t.85-3.73q.45-1.89.81-3.37t.45-1.76q.09-.36.68-2.11l1.31-3.91q.72-2.16,1.39-4.27t1.12-3.2c.06-.18.18-.48.36-.9s.36-.87.54-1.35.36-.93.54-1.35.3-.72.36-.9q.27-.63.85-1.75t1.17-2.29l1-2.07.54-1.08a3.3,3.3,0,0,1,.45-.58,10,10,0,0,1,.81-.81l.85-.76c.27-.24.46-.42.59-.54a7.12,7.12,0,0,0,1-.49l1.58-.86q.85-.45,1.66-.81t1.17-.54l.76-.27a9.19,9.19,0,0,1,1.08-.31l1.08-.23a4.72,4.72,0,0,1,.68-.09l.72-.09,1.44-.18,1.67-.18c.57-.06,1-.09,1.31-.09a11.66,11.66,0,0,1,1.3.09l1.53.18,1.31.18.63.09a7,7,0,0,1,1.21.36q1,.36,1.48.54.63.27,1.76.81t2.25,1.12l2.07,1.08,1.13.59.45.4q.36.32.81.76l.86.86a4.87,4.87,0,0,1,.58.67c.06.06.18.21.36.45a9.64,9.64,0,0,1,.54.81c.18.3.36.58.54.86a6.59,6.59,0,0,1,.36.58c.06.12.18.35.36.67s.36.69.54,1.08.36.75.54,1.08a5.27,5.27,0,0,1,.36.76l1.8,4.5q.27.63.72,1.53t.86,1.75q.4.86,1.12,2.11h.9q.54-.45,1.8-1.62t2.7-2.47l2.7-2.43q1.26-1.12,1.8-1.57a3.86,3.86,0,0,1,.4-.31c.21-.15.46-.32.76-.5l.85-.54.68-.45,1.8-.9.81-.27c.36-.12.73-.23,1.13-.31l1-.22a3.88,3.88,0,0,1,.63-.09l1.62-.13q1.44-.13,2.34-.13.45,0,1.26,0l1.62.09,1.44.09.72,0a7,7,0,0,1,1.21.36q1,.36,1.48.54a9,9,0,0,0,1,.54l1.66.76q.9.4,1.67.81c.51.27.85.47,1,.58a6.55,6.55,0,0,1,.59.36c.27.18.55.36.86.54a9.65,9.65,0,0,1,.81.54c.24.18.39.3.45.36l3.6,3.6c.06.06.18.21.36.45a9.61,9.61,0,0,1,.54.81c.18.3.36.58.54.85a6.58,6.58,0,0,1,.36.58,3.76,3.76,0,0,0,.41.76,9.31,9.31,0,0,1,.58,1.08l.5,1.08q.22.5.31.67l.5,1.48.85,2.57q.45,1.35.81,2.56a7.28,7.28,0,0,0,.54,1.49q.27.63,1.44,3t2.56,5.08q1.39,2.7,2.61,5.08t1.48,3q.09.18.4.94t.77,1.75q.45,1,.85,2t.68,1.57q.18.36.45,1.08t.58,1.44q.31.72.54,1.3a4,4,0,0,1,.22.67l.72,2.12q.54,1.58,1.26,3.73t1.57,4.55q.85,2.39,1.57,4.5t1.3,3.73q.58,1.62.76,2.07a13,13,0,0,0,.81,1.8q.72,1.44,1.8,3.55t2.34,4.68q1.26,2.57,2.52,5l2.38,4.68,1.84,3.65a4.68,4.68,0,0,1,.4.67q.31.59.76,1.31t.85,1.44a10.2,10.2,0,0,0,.68,1.08,14.16,14.16,0,0,0,.9,1.39l.9,1.31,2.7,3.6q.27.27,1,1.17l1.62,1.89q.85,1,1.62,1.93t1.13,1.31q.36.36,1.67,1.8L384,202.1q1.53,1.71,2.88,3.15t1.62,1.8l1.48,1.93q1.21,1.58,2.56,3.42t2.57,3.47l1.49,2a7,7,0,0,0,.9.95l.9.85a10,10,0,0,0,1,.54l1.57.76,1.66.81,1.17.58,7.2,2.7a7.69,7.69,0,0,1,.94.45l.85.45a5.16,5.16,0,0,0,.72.54q.54.36,1.08.76l1.08.81a8,8,0,0,1,.72.58,7.25,7.25,0,0,1,.94.9l.85.9a3.56,3.56,0,0,1,.49.9q.31.72.4.9c0,.06,0,.26,0,.58s0,.59,0,.76,0,.44,0,.77,0,.53,0,.59-.2.49-.4.94a3.55,3.55,0,0,1-.49.86l-1.53.81a19,19,0,0,1-2.07,1l-4.5,1.8-2.7.9-1.08.27c-.48.12-1,.22-1.44.31l-1.31.22-.68.09H402q-.81,0-1.89,0t-2.25,0h-3.06q-1,0-2.07,0t-2.07,0h-1.26l-.9-.41a3.41,3.41,0,0,1-.9-.49l-1.49-1.44q-1.22-1.17-2.56-2.57t-2.56-2.61l-1.49-1.49a6.26,6.26,0,0,0-.54-.4q-.45-.31-1-.77t-1.17-.86a6.43,6.43,0,0,1-.86-.67l-5.4-3.6-1.17-.72q-.72-.45-1.44-.85t-1.26-.76a2.56,2.56,0,0,0-.63-.36l-.54,0c-.3,0-.54,0-.72,0l-.81,0-.63,0-1.53.45-1.75.54q-.86.27-1.49.49t-.63.32v.9l5.4,17.1v3q-.18,0-.9-.09a3.58,3.58,0,0,1-.9-.18,3.22,3.22,0,0,1-.9-.9l-9-17.1a3.21,3.21,0,0,0-.9-.9,4.44,4.44,0,0,0-.67-.22q-.5-.13-1.12-.27l-1.17-.27a4.8,4.8,0,0,0-.63-.14q-.36-.09-1.39-.41a6.14,6.14,0,0,1-1.31-.49h0Zm-34.07-89.82,1.8,4.5.9,2.07q.63,1.44,1.35,3t1.35,2.93q.63,1.35.9,1.89t.9,1.89q.63,1.35,1.35,2.75t1.35,2.66q.63,1.26.9,1.71.18.27.67,1.13l1.08,1.84q.58,1,1.08,1.93t.76,1.39q.36.72,1.4,2.39t2.2,3.51q1.17,1.85,2.16,3.51t1.44,2.3l3.6,5.4a4.63,4.63,0,0,0,.5.67q.41.5.81,1.08t.81,1.08c.27.33.46.59.58.77q.54.72,1.67,2.12l2.25,2.79q1.12,1.4,2.07,2.61t1.21,1.48a8.42,8.42,0,0,0,.94,1l.86.81a1.08,1.08,0,0,0,.45.18,2.63,2.63,0,0,0,.45.09v-6.57a10.22,10.22,0,0,0-.63-1.26L344,185l-1.75-3.24q-.9-1.66-1.53-2.66-.27-.45-1.22-1.89t-2.11-3.15q-1.17-1.71-2.25-3.33l-1.62-2.43-1-1.39-1.62-2.2q-.86-1.17-1.62-2.16l-1.12-1.44q-.36-.36-1.66-2t-2.83-3.42l-2.88-3.37a21.54,21.54,0,0,1-1.62-2,6.92,6.92,0,0,1-.76-1l-1.08-1.66L316.23,146l-.67-1-1.26-2.52q-.9-1.8-1.94-3.78t-1.89-3.78q-.86-1.8-1.22-2.52a3.22,3.22,0,0,0-.9.9v.9Z" transform="translate(-1.01 -1.76)"/><path class="cls-2" d="M394.94,179.75a18.68,18.68,0,0,0,1.8.72c-2.52,7.38-5,17.82-5,21.6,0,6.3,6.66,7.74,7.38,7.74a35.44,35.44,0,0,1,1.08-8.82,34,34,0,0,1,1.08-3.24c1.44-3.42,3.6-8.64,5.94-14.22a60.78,60.78,0,0,0,9.54.9c17.28,0,37.08-11.16,46.62-32.58a23.21,23.21,0,0,0,2.16-9.54c0-17.28-25.74-18.54-32.4-18.54-29,0-48.06,17.46-49,18.9a7.82,7.82,0,0,0-.72,1.26,9.74,9.74,0,0,0-.54,3.42c0,2.7,1.26,6.12,5.58,9.54.9,0,5.94-10.44,29.88-20a59.63,59.63,0,0,1,18.18-3.24c7.2,0,20.88,2.7,20.88,9.18,0,3.42-2,8.28-4.68,13.5-8.28,16-24.84,23.76-39.24,23.76a41,41,0,0,1-4.68-.36c10.62-26.46,11.34-24.66,11.34-28.08,0-5.58-9.18-8.28-10.08-8.82a23.33,23.33,0,0,1-1.44,5.94l-1.26,3.78c-2.34,5.58-6.12,14-9.54,24.66-12.6-4.32-16.2-11.52-16.92-11.52-.54,0-1.08.18-1.08.72a.66.66,0,0,0,.18.54c0,.18,0,.18.18.18C380.18,167,382.88,174.35,394.94,179.75Z" transform="translate(-1.01 -1.76)"/><path class="cls-2" d="M494.12,166.07c0-3.42-2.88-11.52-10.44-11.52a12.27,12.27,0,0,0-7.92,2.88c-2-3.06-2.52-3.24-3.06-3.24-2.88.9-17.46,12.24-17.46,30.78,0,7,4,16.74,13.86,16.74,5.94,0,10.8-4.5,12.06-6.12a14.27,14.27,0,0,0,4.5.9c9.36,0,12.24-6.12,12.24-8.1,0-.54-.18-.9-.54-.9-1.44,0-5,4.14-9.36,4.14a6.71,6.71,0,0,1-2.16-.36c3.78-4.86,8.46-13.14,8.46-21.78A21.78,21.78,0,0,0,494.12,166.07Zm-24.48,31.14c-4.86-.54-7.56-3.24-7.56-9.72s3.06-12.06,7.2-16.38a37.89,37.89,0,0,0-.36,4.5c0,6.48,1.44,14,7.74,17.82C473.24,196.49,470.9,197.21,469.64,197.21Zm15.3-18.54a25.61,25.61,0,0,1-4.32,10.26c-2.88-.9-3.6-6.12-3.6-8.82,0-5.58,3.6-14,7.2-14,1.44.54,1.44,4.14,1.44,7.74A14.45,14.45,0,0,1,484.94,178.67Z" transform="translate(-1.01 -1.76)"/><path class="cls-2" d="M538.94,180.65a1.08,1.08,0,0,0-.72-.18.56.56,0,0,1-.36.18c-4.86,11-10.26,15.66-13.68,15.66-2,0-2.34-2-2.34-4.68,0-12.06,13.68-27.9,13.68-35.1,0-4.14-7.92-8.82-8.28-8.82a28.76,28.76,0,0,1-2.7,6.66,20.25,20.25,0,0,1-2.16,3.78h-5c-3.42,0-8.1-.54-8.1-1.26.54-.54.54-.54,1.26-2.16,0-.18-3.42-1.08-7.56-2a5.45,5.45,0,0,0-2.7-.36c-2,0-2.16,1.26-2.16,4a11.36,11.36,0,0,0,5.22,9.54,136.39,136.39,0,0,1-6.66,20.88c-.18,0-.18,0-.18.18v.54c0,.54.54.9,1.44.9,1.44,0,.9-2,9.9-20.52a15.52,15.52,0,0,0,3.06.18,35.86,35.86,0,0,0,7.56-.72c-2.7,6.48-5,14.22-5,21.24,0,8.64,4.86,13.14,9.36,13.14,10.62,0,17.1-19.44,17.1-20.34C539.84,181.19,539.48,181,538.94,180.65Z" transform="translate(-1.01 -1.76)"/><path class="cls-2" d="M559.27,195.23a8.17,8.17,0,0,0,6.84,3.6c10.62,0,16.92-19.62,16.92-20.34l-.36-.36a1.56,1.56,0,0,0-1.08-.54.56.56,0,0,1-.36.18c-4.86,11-10.62,15.66-13.68,15.66-2.16,0-2.52-2-2.52-4.68,0-9.72,8.28-19.8,12.06-27.9.9-.9,1.26-3.42,1.26-4.14,0-4.14-7.74-9-8.28-9-2.16,9.72-6.3,3.78-30.24,49.32a7.42,7.42,0,0,1-.18-2.16c0-14.22,13.86-26.46,13.86-34.56,0-3.78-6.66-9.18-8.28-9.18a85.45,85.45,0,0,1-3.6,9.36c-.9,2-10.08,18-10.08,33.84,0,7.2,1.44,12.06,7.2,12.06,3.78,0,6.48-6.84,6.48-7,1.44-5.58,11.16-23,15.48-31.14-2.34,6.48-4,11-4,17.46A16.64,16.64,0,0,0,559.27,195.23Z" transform="translate(-1.01 -1.76)"/><path class="cls-2" d="M119.09,59.33c-.72-2-3.24-3.24-5.4-4.5-1.26-.54-2.7-1.26-4.14-1.8A34.77,34.77,0,0,1,108.11,59l-1.26,3.78c.72-1.44-21.42,57.42-21.42,67.68C81.29,124.85,78,117.11,78,105.59c0-13,4.32-25.74,8.46-34.2,0-.18,0-.18-.18-.18.54-1.62,1.62-4.32,1.62-5.76,0-2-10.8-7.74-11-7.74-.18,1.62-.72,4.5-1.26,6.84q-.54,1.89-1.08,4.32v.18c-1.44,4.86-5.58,17.82-9.9,30.78C59.51,115.67,51,134.21,28.37,134.21c-16.56,0-22.86-13.14-22.86-27,0-9.36,1.8-15.48,8.82-23.94,5.58-6.66,14.58-11,21.6-11,3.78,0,6.48,1.44,8.1,4.5,2.52-.54,11.16-1.8,11.16-5.58-4.5-2-8.46-7.74-18.18-7.74-20.16.9-36,22.14-36,45.18,0,21.42,11.7,32,29.52,32,20.88,0,31.86-13.5,40.5-33.66,3.78,18.9,11,31,21.78,31.14,0-10.8,19.62-61.38,25.92-72C119.63,64,120.35,61.31,119.09,59.33Z" transform="translate(-1.01 -1.76)"/><path class="cls-2" d="M158.15,108.47c-.54,0-1.08,0-1.08.18-4.32,13.5-10.26,20-13.68,20-1.62,0-2.52-2-2.52-5.94,0-8.64,5.76-18.36,9.72-25.56h.18c.9-2,1.8-3.6,1.8-5.58,0-4.14-8.1-9-8.82-9a6.07,6.07,0,0,1-.72,2.16c-2.7-1.62-5.22-3.6-10.44-3.6-15.12,0-26.28,17.1-26.28,30.78,0,5.58,2.34,17.82,13.32,17.82,7.92,0,11-4.32,13-6.66,1.62,7.38,5.94,10.08,9.54,10.08,10.62,0,16.92-22.14,16.92-23.94C159,109,158.69,108.83,158.15,108.47Zm-25.92,11.16c-2.88,3.6-6.48,5.94-10.62,5.94-7.92,0-9-6.66-9-11.7,0-10.62,10.26-22.14,18.18-22.14,2.88,0,5.22,1.8,7.38,4.14C135.47,102.17,132.23,111.53,132.23,119.63Z" transform="translate(-1.01 -1.76)"/><path class="cls-2" d="M185.69,125.75c.36-1.8,9.54-20.16,14.76-29.52-2.34,6.48-4.68,14-4.68,20.34,0,8.64,4.86,13.14,9.36,13.14,10.62,0,17.1-19.44,17.1-20.34l-.36-.36a1.63,1.63,0,0,0-1.26-.54.56.56,0,0,1-.36.18c-4.86,11-10.26,15.66-13.68,15.66-2,0-2.34-2-2.34-4.68,0-11.88,13.5-28.44,13.5-35.28,0-3.78-7.92-8.64-8.1-8.64-2.34,10.08-7.92,8.46-28.08,44.82.54-14.4,14-29,14-35.82,0-4.14-7.74-9-8.28-9a32.67,32.67,0,0,1-2.34,5.4,35.71,35.71,0,0,1-2,3.6c-2.88,2.88-10.8,14.94-22.14,35.64,0-11.88,11.88-29.16,15.66-36.72a30.77,30.77,0,0,0-4.14-2.16c-2.34-1.26-4.86-2.34-6.84-2.34-.72,0-13,21.24-13,39.24,0,7.38,1.62,11.34,7.2,11.34,4.86,0,8.82-12.24,16-27.54a55.2,55.2,0,0,0-2.7,15.84c0,7.2,1.62,11.88,7.38,11.88A5.53,5.53,0,0,0,185.69,125.75Z" transform="translate(-1.01 -1.76)"/><path class="cls-2" d="M257.5,113.15a1.08,1.08,0,0,0-.72-.18c-.9,0-.9,2.34-8.1,7.74-3.06,2.16-9.18,5.94-14.4,5.94-7,0-11.52-6.48-11.52-13.14a20.38,20.38,0,0,1,1.08-6.48c1.26,1.26,4,2.16,7.74,2.16,11.16,0,20.52-8.82,20.52-18.9,0-5-4.32-10.26-12.06-10.26-12.42,0-24.12,15.66-24.12,31.86,0,7.38,4.14,19.44,16.74,19.44,8.46,0,14.76-4.32,18.9-8.64a40.83,40.83,0,0,0,6.3-8.82A1.36,1.36,0,0,0,257.5,113.15ZM229.06,96.41c3.42-4.32,6.84-5.94,9.18-5.94,1.62,0,2.52.72,2.52,2.34,0,4-6.66,11.7-13.86,11.7a6.85,6.85,0,0,1-2.34-.18A47.78,47.78,0,0,1,229.06,96.41Z" transform="translate(-1.01 -1.76)"/><path class="cls-3" d="M307.12,114.47c11.09.72,13.11,3,14.26,3,.72,0,1-3.6,1-4a7.36,7.36,0,0,0-2.74-5.76,7.84,7.84,0,0,0-2.59-1.58,53.72,53.72,0,0,0-13-1.3A113.06,113.06,0,0,0,286,106.4c1-1.73,1.58-2.88,1.58-4.46,0-3.89-6.19-7.49-7.92-7.49.14,0-3.31,9.5-5.62,14.55-5.18,1.3-8.21,2.3-10.94,2.3s-3.89-1-3.89-2.88c0-2.3,1.44-2.88,2.45-2.88.72,0,.86.43,1.3.43a.38.38,0,0,0,.43-.43c0-.43-.72-1.15-2.45-1.15q-4.32,2.38-4.32,5.62c0,3.31,3.6,6.48,9.22,6.48a14,14,0,0,0,5.18-.86C266.8,125.41,261.9,139,261.9,147c0,6.91,4.75,8.64,7.63,8.64,12-.14,15.27-15.84,15.27-15.84l-.29-.29a1.24,1.24,0,0,0-.86-.43.45.45,0,0,1-.29.14c-4,8.64-9.65,12.1-13,12.1-1.58,0-2.3-.86-2.3-2.74,0-6.91,7.92-23.19,13.39-34,5-.43,9.36-.72,13.25-.72A99.15,99.15,0,0,1,307.12,114.47Z" transform="translate(-1.01 -1.76)"/><path class="cls-3" d="M317.06,136.65c-.43,0-.86,0-.86.14-3.89,8.78-8.21,12.53-10.94,12.53-1.87,0-2.16-2.16-2.16-4.32,0-7.49,5.9-13.83,8.21-20a7.22,7.22,0,0,0,.43-2c0-3.31-6.19-7.2-6.62-7.2,1.15,2.59-5.76,7.06-21.89,36.15-.14,0-.14,0-.14.14,0-10.22,16.85-44.64,19.59-50.26a12.26,12.26,0,0,0,.72-3.74c0-4.32-7.63-6.48-8.06-6.91a18.66,18.66,0,0,1-1.15,4.75,26.86,26.86,0,0,0-1,3.17c-1.73,4.61-16.27,40-16.27,54.29,0,5,2.45,6.62,4.75,6.62a5.19,5.19,0,0,0,4.9-3.74c1.15-4.32,6.91-15.27,11.09-22.9a27,27,0,0,0-1.44,8.93c0,6.19,3.46,11.38,7.92,11.38,8.06,0,13.68-15.27,13.68-16.42C317.78,137.08,317.49,136.93,317.06,136.65Z" transform="translate(-1.01 -1.76)"/><path class="cls-3" d="M353.92,136.65c-.43,0-.86,0-.86.14-3.46,10.8-8.21,16-10.94,16-1.3,0-2-1.58-2-4.75,0-6.91,4.61-14.69,7.78-20.45H348c.72-1.58,1.44-2.88,1.44-4.46,0-3.31-6.48-7.2-7.06-7.2a4.86,4.86,0,0,1-.58,1.73c-2.16-1.3-4.18-2.88-8.35-2.88-12.1,0-21,13.68-21,24.63,0,4.46,1.87,14.26,10.66,14.26,6.34,0,8.78-3.46,10.37-5.33,1.3,5.9,4.75,8.06,7.63,8.06,8.5,0,13.54-17.71,13.54-19.15C354.64,137.08,354.35,136.93,353.92,136.65Zm-20.74,8.93c-2.3,2.88-5.18,4.75-8.5,4.75-6.34,0-7.2-5.33-7.2-9.36,0-8.5,8.21-17.71,14.55-17.71,2.3,0,4.18,1.44,5.9,3.31C335.77,131.61,333.18,139.09,333.18,145.57Z" transform="translate(-1.01 -1.76)"/><path class="cls-3" d="M395,114.47c11.09.72,13.11,3,14.26,3,.72,0,1-3.6,1-4a7.36,7.36,0,0,0-2.74-5.76,7.84,7.84,0,0,0-2.59-1.58,53.72,53.72,0,0,0-13-1.3,113.06,113.06,0,0,0-18.15,1.58c1-1.73,1.58-2.88,1.58-4.46,0-3.89-6.19-7.49-7.92-7.49.14,0-3.31,9.5-5.62,14.55-5.18,1.3-8.21,2.3-10.94,2.3s-3.89-1-3.89-2.88c0-2.3,1.44-2.88,2.45-2.88.72,0,.86.43,1.3.43a.38.38,0,0,0,.43-.43c0-.43-.72-1.15-2.45-1.15q-4.32,2.38-4.32,5.62c0,3.31,3.6,6.48,9.22,6.48a14,14,0,0,0,5.18-.86c-4.18,9.79-9.07,23.33-9.07,31.39,0,6.91,4.75,8.64,7.63,8.64,12-.14,15.27-15.84,15.27-15.84l-.29-.29a1.24,1.24,0,0,0-.86-.43.45.45,0,0,1-.29.14c-4,8.64-9.65,12.1-13,12.1-1.58,0-2.3-.86-2.3-2.74,0-6.91,7.92-23.19,13.39-34,5-.43,9.36-.72,13.25-.72A99.15,99.15,0,0,1,395,114.47Z" transform="translate(-1.01 -1.76)"/></svg>