<?xml version="1.0" encoding="UTF-8"?>
<svg version="1.1" xmlns="http://www.w3.org/2000/svg" width="638" height="638">
<path d="M0 0 C0 0.66 0 1.32 0 2 C0.66 2 1.32 2 2 2 C2 2.66 2 3.32 2 4 C2.66 4 3.32 4 4 4 C5.7265625 6.1875 5.7265625 6.1875 7.625 9 C8.25664062 9.928125 8.88828125 10.85625 9.5390625 11.8125 C10.26222656 12.8953125 10.26222656 12.8953125 11 14 C11.70125 13.855625 12.4025 13.71125 13.125 13.5625 C24.86429764 11.2656809 36.01092503 11.15221012 46.5 18 C47.7375 18.99 47.7375 18.99 49 20 C50.21224243 20.90721802 50.21224243 20.90721802 51.44897461 21.83276367 C60.20717369 29.27333533 64.3758785 41.89241327 68.9375 52.1875 C69.6274712 53.72756503 70.31822146 55.26728127 71.00976562 56.80664062 C72.68216556 60.53380942 74.34402261 64.26550749 76 68 C82.5023939 65.98655417 88.46075685 63.47738373 94.4921875 60.34179688 C98.84713173 58.19634641 102.17030336 57.57644561 107 58 C114.0342901 61.1081747 116.90434377 67.42518084 119.90625 74.0703125 C120.26812408 74.8567363 120.62999817 75.6431601 121.00283813 76.45341492 C122.17567086 79.00742135 123.33814728 81.56598224 124.5 84.125 C125.30411813 85.88389363 126.10864533 87.6426003 126.91357422 89.40112305 C129.2874368 94.59545989 131.64575668 99.79674733 134 105 C134.34099731 105.75263123 134.68199463 106.50526245 135.0333252 107.28070068 C137.0743344 111.78666797 139.10436047 116.2973597 141.125 120.8125 C141.87813477 122.49013428 141.87813477 122.49013428 142.64648438 124.20166016 C143.09572266 125.21405762 143.54496094 126.22645508 144.0078125 127.26953125 C144.59006592 128.57821167 144.59006592 128.57821167 145.18408203 129.91333008 C146 132 146 132 146 134 C152.27 134.66 158.54 135.32 165 136 C165.73605469 133.88078125 166.47210938 131.7615625 167.23046875 129.578125 C167.95819585 127.51815491 168.69134995 125.4601933 169.42504883 123.40234375 C169.93010151 121.97661705 170.42953235 120.54888537 170.9230957 119.11914062 C171.63566929 117.05820273 172.36849285 115.00544394 173.10546875 112.953125 C173.75745239 111.09929199 173.75745239 111.09929199 174.42260742 109.20800781 C176.44967612 105.08547527 178.93320848 103.03339576 183 101 C187.00798089 100.35513138 190.5562631 100.1326904 194.11328125 102.26953125 C198.0653596 105.63247991 199.8624998 107.47656026 200.34375 112.80859375 C200.27062806 119.325587 197.81056886 125.05016391 195.5 131.0625 C195.07074219 132.21427734 194.64148438 133.36605469 194.19921875 134.55273438 C193.14585951 137.37339635 192.07471401 140.1874052 191 143 C194.96 144.65 198.92 146.3 203 148 C203.37125 146.659375 203.7425 145.31875 204.125 143.9375 C205.54169622 139.26641198 207.13899425 134.68521242 208.875 130.125 C209.22328857 129.16194946 209.22328857 129.16194946 209.57861328 128.17944336 C211.26345049 123.86537633 213.08747876 121.47453487 217 119 C221.02143258 117.58203822 224.24335429 117.73808418 228.25 119.125 C232.41252363 121.9630843 234.60184074 124.25140073 235.73608398 129.23266602 C236.03242373 133.46284052 235.34074311 136.05349136 233.91015625 140.02734375 C233.68678085 140.66112442 233.46340546 141.29490509 233.23326111 141.94789124 C232.52397316 143.94988001 231.79372956 145.94343483 231.0625 147.9375 C230.57476059 149.30223082 230.08841838 150.66746184 229.60351562 152.03320312 C228.41843757 155.36140372 227.21445674 158.68238995 226 162 C226.61858887 162.30091553 227.23717773 162.60183105 227.87451172 162.91186523 C256.73503673 177.68688935 278.13576731 213.10448652 287.94335938 242.86230469 C292.91239721 259.0363583 295.40730521 274.72902731 295.3125 291.6875 C295.31034485 292.38621216 295.3081897 293.08492432 295.30596924 293.80480957 C295.08695674 338.22257054 276.47281266 376.43971326 245.45703125 407.55078125 C215.93597592 435.55335567 175.64519527 450.37661856 135.13061523 450.09155273 C91.668414 448.82052993 51.55183144 430.9443662 21.56835938 399.49853516 C-10.04888785 365.30547723 -21.76599336 322.65630866 -20 277 C-19.51669889 270.5592288 -18.44714823 264.28980035 -17 258 C-16.82839355 257.25250488 -16.65678711 256.50500977 -16.47998047 255.73486328 C-12.16795409 237.63514219 -4.82950317 221.86239429 4.87426758 206.04199219 C5.24575928 205.36813477 5.61725098 204.69427734 6 204 C6.44037598 203.24460937 6.88075195 202.48921875 7.33447266 201.7109375 C8.30844286 197.74359886 6.73100944 195.08205294 5.00390625 191.578125 C4.66403183 190.85277054 4.32415741 190.12741608 3.97398376 189.38008118 C2.85260364 186.99556701 1.70737129 184.62331177 0.5625 182.25 C-0.21683861 180.5998176 -0.99416171 178.94868192 -1.76953125 177.29663086 C-3.37012381 173.89003697 -4.97851102 170.48730729 -6.59326172 167.08740234 C-9.95924235 159.98806166 -13.25191022 152.85560927 -16.51638794 145.70910645 C-17.48371646 143.59803673 -18.46097885 141.49177778 -19.43920898 139.38574219 C-20.03284873 138.09200758 -20.62605349 136.79807325 -21.21875 135.50390625 C-21.73373047 134.38830322 -22.24871094 133.2727002 -22.77929688 132.12329102 C-25.10063017 126.18392764 -25.43404631 121.97447731 -23 116 C-18.54167139 111.60549204 -12.79523407 109.34108196 -7.1875 106.75 C-6.20845703 106.29109375 -5.22941406 105.8321875 -4.22070312 105.359375 C-1.81654933 104.23352737 0.59032528 103.11396929 3 102 C3 98.82123939 2.4461058 97.42264533 1.13671875 94.578125 C0.74419922 93.71703125 0.35167969 92.8559375 -0.05273438 91.96875 C-0.46845703 91.0715625 -0.88417969 90.174375 -1.3125 89.25 C-2.12163181 87.48462151 -2.9302354 85.71900081 -3.73828125 83.953125 C-4.1245166 83.11201172 -4.51075195 82.27089844 -4.90869141 81.40429688 C-6.32245322 78.289593 -7.66978605 75.15118645 -9 72 C-10.65 72.66 -12.3 73.32 -14 74 C-14 74.66 -14 75.32 -14 76 C-14.66 76 -15.32 76 -16 76 C-16 76.66 -16 77.32 -16 78 C-16.66 78 -17.32 78 -18 78 C-18 78.66 -18 79.32 -18 80 C-22.30232558 84.76744186 -22.30232558 84.76744186 -26 86 C-26.68102343 87.32605781 -27.34614608 88.66033688 -28 90 C-33.13478371 94.9298745 -39.72386639 99 -47 99 C-46.67 99.66 -46.34 100.32 -46 101 C-45.89447297 102.64202069 -45.85125454 104.28823225 -45.83886719 105.93359375 C-45.82925964 106.96226562 -45.8196521 107.9909375 -45.80975342 109.05078125 C-45.8033786 110.72720703 -45.8033786 110.72720703 -45.796875 112.4375 C-45.79117493 113.58734375 -45.78547485 114.7371875 -45.77960205 115.921875 C-45.7701383 118.3631091 -45.76361264 120.80435606 -45.75976562 123.24560547 C-45.75011201 126.95693817 -45.71912254 130.66770486 -45.6875 134.37890625 C-45.68096476 136.75260088 -45.67571634 139.12629948 -45.671875 141.5 C-45.6595282 142.60142334 -45.6471814 143.70284668 -45.63446045 144.83764648 C-45.66194088 154.48788761 -47.6256523 162.41143581 -52.6875 170.625 C-53.31011719 171.64851562 -53.93273437 172.67203125 -54.57421875 173.7265625 C-55.27998047 174.85191406 -55.27998047 174.85191406 -56 176 C-55.46415283 176.16580566 -54.92830566 176.33161133 -54.3762207 176.50244141 C-48.44142844 178.40152371 -42.82505517 180.72834444 -37.1875 183.375 C-36.35541016 183.74882812 -35.52332031 184.12265625 -34.66601562 184.5078125 C-30.01756252 186.68479455 -26.79414375 188.50888936 -24 193 C-20.67023934 202.40167715 -27.86215381 212.83344 -31.875 221.25 C-32.24181885 222.0126416 -32.6086377 222.7752832 -32.98657227 223.56103516 C-37.05137072 232.02668834 -40.9330877 240.57331655 -44.8125 249.125 C-45.13869324 249.84337036 -45.46488647 250.56174072 -45.80096436 251.30187988 C-46.12107483 252.00695679 -46.4411853 252.71203369 -46.77099609 253.43847656 C-47.08429871 254.1283667 -47.39760132 254.81825684 -47.72039795 255.52905273 C-48.32947312 256.87440047 -48.93602176 258.22089532 -49.53985596 259.56860352 C-50.78365588 262.34310526 -52.04781429 265.09562859 -53.40771484 267.81542969 C-55.57585093 271.98691243 -55.57585093 271.98691243 -55.5703125 276.52734375 C-55.05210937 277.34332031 -54.53390625 278.15929687 -54 279 C-53.22555329 280.31320744 -52.45224342 281.62708558 -51.6796875 282.94140625 C-51.23061035 283.67931396 -50.7815332 284.41722168 -50.31884766 285.17749023 C-29.31999601 319.86429811 -21.84560735 362.49034177 -31.27685547 402.18164062 C-36.9964018 424.47280972 -46.29864786 444.51070282 -60 463 C-60.66 463.99 -61.32 464.98 -62 466 C-62.66 466 -63.32 466 -64 466 C-64.21914063 466.53367187 -64.43828125 467.06734375 -64.6640625 467.6171875 C-79.11718936 493.39615647 -114.36500285 510.77173931 -141.57275391 518.75488281 C-154.24438079 522.26804442 -166.88488841 524.2063708 -180 525 C-180.98742187 525.06058594 -181.97484375 525.12117187 -182.9921875 525.18359375 C-185.68569086 525.25491705 -188.30981854 525.16506335 -191 525 C-191.67901367 524.95891113 -192.35802734 524.91782227 -193.05761719 524.87548828 C-235.89880139 522.04054311 -274.95426688 503.75666821 -304 472 C-306.7846176 468.75040873 -309.42322203 465.41622317 -312 462 C-312.57363281 461.24332031 -313.14726562 460.48664063 -313.73828125 459.70703125 C-326.50335659 442.18806579 -335.296812 422.13026494 -340 401 C-340.29777344 399.84242188 -340.59554688 398.68484375 -340.90234375 397.4921875 C-348.84738559 361.83103196 -341.65665405 322.57683774 -324 291 C-323.64147949 290.35305176 -323.28295898 289.70610352 -322.91357422 289.03955078 C-318.03494395 280.32786499 -312.62544025 272.5080681 -306 265 C-305.23429687 264.12472656 -304.46859375 263.24945313 -303.6796875 262.34765625 C-301.48175806 259.870329 -299.25202002 257.42815566 -297 255 C-296.19369141 254.11248047 -296.19369141 254.11248047 -295.37109375 253.20703125 C-287.51562595 244.91842989 -277.85579188 237.71635929 -268 232 C-268.71807584 226.31149297 -271.54279462 221.5382217 -274.1171875 216.50195312 C-276.5393066 211.57373634 -277.72964166 207.50708188 -278 202 C-276.1434497 196.63663248 -273.05501111 193.52750556 -268 191 C-266.01171875 190.98046875 -266.01171875 190.98046875 -263.6875 191.1875 C-262.92824219 191.24292969 -262.16898437 191.29835937 -261.38671875 191.35546875 C-257.24224931 192.47467899 -254.64612834 194.9491539 -252.42260742 198.56542969 C-251.98795166 199.50805664 -251.5532959 200.45068359 -251.10546875 201.421875 C-250.62529297 202.44667969 -250.14511719 203.47148437 -249.65039062 204.52734375 C-248.92625977 206.12255859 -248.92625977 206.12255859 -248.1875 207.75 C-247.68541016 208.82894531 -247.18332031 209.90789062 -246.66601562 211.01953125 C-245.43256002 213.67439759 -244.21473575 216.33651637 -243 219 C-237.06 217.02 -237.06 217.02 -231 215 C-231.97453125 213.081875 -231.97453125 213.081875 -232.96875 211.125 C-233.81332789 209.41707581 -234.65703183 207.70871926 -235.5 206 C-236.14388672 204.74123047 -236.14388672 204.74123047 -236.80078125 203.45703125 C-239.47546357 197.98030079 -240.61117715 194.09833904 -240 188 C-238.22482586 183.88907041 -235.86231366 181.26701019 -232 179 C-227.38582855 178.15563221 -224.17849538 178.39630624 -219.97265625 180.55078125 C-216.3172795 183.56250428 -214.80444822 186.44093835 -212.875 190.6875 C-212.53662109 191.39922363 -212.19824219 192.11094727 -211.84960938 192.84423828 C-210.88294557 194.8888533 -209.93911396 196.94261965 -209 199 C-208.30777344 200.47533203 -208.30777344 200.47533203 -207.6015625 201.98046875 C-205 207.6356383 -205 207.6356383 -205 210 C-201.26816225 210.62561208 -198.49719467 210.5114458 -195 209 C-191.53350267 204.30540962 -189.55383192 199.0081867 -187.375 193.625 C-186.70310697 192.05459816 -186.02676627 190.48609247 -185.34619141 188.91943359 C-183.9260009 185.63864767 -182.52567784 182.35045853 -181.140625 179.0546875 C-178.01012321 171.62871257 -174.73050399 164.27082626 -171.40948486 156.92840576 C-170.39196512 154.66277489 -169.39692274 152.38823027 -168.40380859 150.11181641 C-167.77788084 148.71217902 -167.15113311 147.31290795 -166.5234375 145.9140625 C-166.25523193 145.28532227 -165.98702637 144.65658203 -165.71069336 144.00878906 C-163.35106061 138.84262878 -160.09863889 135.54931944 -155 133 C-147.6933275 131.95762148 -142.01283222 135.38393447 -135.5625 138.5 C-134.44939453 139.02464844 -133.33628906 139.54929688 -132.18945312 140.08984375 C-129.45373576 141.38138414 -126.72448475 142.6849727 -124 144 C-124.00888245 143.42085846 -124.01776489 142.84171692 -124.0269165 142.24502563 C-124.11591527 136.17728621 -124.17595055 130.10973441 -124.21972656 124.04150391 C-124.23975089 121.78166157 -124.26697862 119.52187045 -124.30175781 117.26220703 C-124.35068078 114.00019638 -124.37306132 110.73887513 -124.390625 107.4765625 C-124.41127014 106.47823395 -124.43191528 105.4799054 -124.45318604 104.45132446 C-124.45664294 93.46424761 -120.48359502 84.95608269 -113 77 C-107.68890658 72.125289 -101.43579498 68 -94 68 C-94.04640625 67.04480469 -94.0928125 66.08960937 -94.140625 65.10546875 C-94.54286179 50.6967722 -90.85019608 41.70508506 -81.13952637 30.93692017 C-79.20622451 28.8969272 -77.24508001 26.88975757 -75.265625 24.89453125 C-74.54695251 24.16683029 -73.82828003 23.43912933 -73.08782959 22.68937683 C-71.57784886 21.16500023 -70.06513829 19.64332317 -68.54980469 18.12426758 C-66.25728066 15.81981853 -63.98412151 13.49733641 -61.7109375 11.17382812 C-44.34016767 -6.38943432 -22.5165607 -17.77623213 0 0 Z M-33 20 C-33.78375 20.556875 -34.5675 21.11375 -35.375 21.6875 C-38.32628042 24.28743751 -40.76433154 27.13749215 -43.3125 30.125 C-45.33894894 32.37660994 -47.63677268 34.10941815 -50 36 C-51.69532461 37.86617127 -53.32250231 39.78354576 -54.95703125 41.703125 C-58.12696057 45.26702259 -61.54847437 48.56845082 -64.9609375 51.8984375 C-68.24531602 55.28348662 -68.50703349 57.95165057 -68.4921875 62.5390625 C-67.58720879 67.06395606 -64.36411462 70.01644133 -61 73 C-57.40014411 74.79992794 -53.91495161 74.66074811 -50 74 C-48.22013382 72.96018609 -48.22013382 72.96018609 -46.625 71.3828125 C-45.93776855 70.74698242 -45.25053711 70.11115234 -44.54248047 69.45605469 C-43.70346191 68.64555664 -42.86444336 67.83505859 -42 67 C-41.4753717 66.49408325 -40.95074341 65.9881665 -40.41021729 65.46691895 C-36.61373163 61.79510277 -32.85641125 58.08551959 -29.11621094 54.35644531 C-27.11576083 52.36580615 -25.10488651 50.38608478 -23.09375 48.40625 C-21.81444882 47.13347087 -20.53578005 45.86005569 -19.2578125 44.5859375 C-18.65889191 43.99936371 -18.05997131 43.41278992 -17.44290161 42.80844116 C-13.36124269 38.70469639 -11 35.64134774 -11 29.625 C-12.43027279 24.44026113 -15.33073905 20.56224187 -20.015625 17.8203125 C-25.05718123 15.73620461 -28.74982986 16.9485958 -33 20 Z M13.0625 43.875 C11.17546819 47.64906363 10.69698568 50.84766646 11.77416992 54.9440918 C12.19287354 55.95640869 12.61157715 56.96872559 13.04296875 58.01171875 C13.50880371 59.14528809 13.97463867 60.27885742 14.45458984 61.44677734 C16.98994784 67.27609808 19.61356851 73.05718436 22.3125 78.8125 C22.86228516 79.99392578 23.41207031 81.17535156 23.97851562 82.39257812 C25.31519233 85.26352722 26.65571845 88.13260603 28 91 C31.59360663 89.8382932 35.07853782 88.60239605 38.5234375 87.0546875 C39.31621094 86.70019531 40.10898437 86.34570312 40.92578125 85.98046875 C41.73402344 85.61566406 42.54226563 85.25085938 43.375 84.875 C44.20644531 84.50246094 45.03789062 84.12992188 45.89453125 83.74609375 C47.93084255 82.83326454 49.96594539 81.91784402 52 81 C51.44204701 75.38447312 49.32746807 70.99134018 46.875 66 C46.47265137 65.16855469 46.07030273 64.33710937 45.65576172 63.48046875 C44.83608184 61.79115621 44.01269938 60.103635 43.18554688 58.41796875 C42.09805283 56.19998254 41.02379312 53.97614164 39.953125 51.75 C39.34464312 50.499565 38.73532472 49.24953657 38.125 48 C37.32449219 46.3603125 37.32449219 46.3603125 36.5078125 44.6875 C34.72704187 41.51348395 33.53551047 39.50577958 30.01953125 38.34765625 C23.07095658 37.44987581 18.13962845 38.96164988 13.0625 43.875 Z M-97 98 C-99.19313816 103.8529345 -99.30672669 109.32986219 -99.30078125 115.53515625 C-99.30506638 116.53203964 -99.3093515 117.52892303 -99.31376648 118.55601501 C-99.31948723 120.65460452 -99.32002675 122.75321385 -99.31567383 124.85180664 C-99.31250658 128.05584501 -99.33602687 131.2589657 -99.36132812 134.46289062 C-99.36360067 136.50781134 -99.36430482 138.55273453 -99.36328125 140.59765625 C-99.372491 141.550923 -99.38170074 142.50418976 -99.39118958 143.48634338 C-99.34866222 149.61684928 -98.53116383 153.94151037 -94.5 158.8125 C-90.43887888 162.02755422 -84.88955731 161.42245775 -80 161 C-76.59467287 159.69583216 -75.41081433 158.61462483 -73.39819336 155.60351562 C-71.42915674 150.5287853 -71.55153534 145.86757857 -71.56640625 140.46875 C-71.55854347 138.80483215 -71.55854347 138.80483215 -71.55052185 137.1072998 C-71.5441125 134.76734248 -71.54542451 132.42735289 -71.55395508 130.08740234 C-71.56247115 126.5121112 -71.53367635 122.93841497 -71.50195312 119.36328125 C-71.5003411 117.08593798 -71.50091867 114.80859188 -71.50390625 112.53125 C-71.49267227 111.46547729 -71.48143829 110.39970459 -71.46986389 109.30163574 C-71.52677774 103.22715931 -71.92165959 99.61512723 -76 95 C-82.80100987 90.21153387 -91.94437368 91.90732212 -97 98 Z M63 114 C60.61968652 117.77566966 59.60630093 120.53807725 60 125 C59.175 124.360625 58.35 123.72125 57.5 123.0625 C53.65065607 120.51447092 50.61262593 120.07321628 46 120 C43.56936663 121.13774328 41.88186104 122.11813896 40 124 C39.55658016 127.81341061 39.84554045 129.71396381 41.6875 133.125 C47.39630594 140.22243441 54.22850563 142.81879519 63.125 143.875 C66.55615644 143.76827663 67.64248193 143.36221343 70.08203125 140.890625 C74.16706356 134.80177684 78.38491306 127.26346224 77.83203125 119.703125 C77.22296044 116.85038309 76.28856882 114.43972392 74.6875 112 C70.37606955 109.44507825 66.6604279 111.1101885 63 114 Z M-136.25 192.6875 C-138.11434805 194.87697021 -138.11434805 194.87697021 -138.75 197.4375 C-137.51801345 201.64678737 -133.68946947 202.94113941 -130 205 C-127.22320636 206.4203526 -124.40317781 207.7187206 -121.5546875 208.98828125 C-120.7811795 209.33634323 -120.00767151 209.68440521 -119.21072388 210.04301453 C-117.59027894 210.76949952 -115.96842201 211.49284266 -114.34521484 212.21313477 C-111.86889262 213.31521808 -109.40130079 214.43542307 -106.93359375 215.55664062 C-105.34945681 216.26413801 -103.76483743 216.97055639 -102.1796875 217.67578125 C-101.44829559 218.01007645 -100.71690369 218.34437164 -99.96334839 218.688797 C-95.82078998 220.50332517 -92.61577671 221.48489404 -88 221 C-85.91666667 220.08333333 -85.91666667 220.08333333 -85 218 C-84.85429084 214.5300662 -84.85429084 214.5300662 -86 211 C-88.39513348 209.31949081 -90.20813965 208.36802304 -92.875 207.3125 C-94.40757897 206.65240617 -95.94012892 205.99224496 -97.47265625 205.33203125 C-98.3352002 204.97189941 -99.19774414 204.61176758 -100.08642578 204.24072266 C-103.41578521 202.82294114 -106.7049149 201.32846511 -109.99609375 199.82421875 C-111.82618246 198.99154154 -113.65677546 198.15998525 -115.48760986 197.32894897 C-117.29510217 196.50790289 -119.10141488 195.68426162 -120.90771484 194.8605957 C-122.02742676 194.36003662 -123.14713867 193.85947754 -124.30078125 193.34375 C-125.30278564 192.89193359 -126.30479004 192.44011719 -127.3371582 191.97460938 C-130.95868183 190.64911911 -133.08697181 190.31522886 -136.25 192.6875 Z M76 220 C75.25234375 220.52980469 74.5046875 221.05960938 73.734375 221.60546875 C73.16203125 222.06566406 72.5896875 222.52585937 72 223 C72 223.66 72 224.32 72 225 C71.15695312 225.31904297 71.15695312 225.31904297 70.296875 225.64453125 C67.23911695 227.44902452 65.35751812 229.89766517 63.25 232.6875 C62.81534424 233.26201904 62.38068848 233.83653809 61.93286133 234.4284668 C46.60615493 255.24801366 40.0768365 280.67760109 43.77124023 306.36474609 C47.25850403 327.41347568 56.90312467 345.07516883 72 360 C73.20269531 361.21816406 73.20269531 361.21816406 74.4296875 362.4609375 C92.23803632 379.56862997 116.49042812 386.67814549 140.68139648 386.47241211 C155.28573249 386.06417147 168.08938963 382.95701284 181 376 C182.52367187 375.195625 182.52367187 375.195625 184.078125 374.375 C191.2914579 370.37992332 198.0547696 365.74627584 204 360 C204 359.34 204 358.68 204 358 C204.66 358 205.32 358 206 358 C206 357.34 206 356.68 206 356 C206.66 356 207.32 356 208 356 C219.08483302 343.65030014 225.83831296 328.90539499 230 313 C230.24621094 312.0925 230.49242187 311.185 230.74609375 310.25 C236.24832972 285.96426884 229.61804118 260.85783962 217 240 C214.83483861 236.83746102 212.48827715 233.91259388 210 231 C209.03513672 229.80117188 209.03513672 229.80117188 208.05078125 228.578125 C192.39396216 209.94043277 169.34668958 200.34541175 145.66796875 197.296875 C120.51262885 195.26087305 94.99213505 203.40028507 76 220 Z M-255.75 302.9375 C-266.48608729 315.37378617 -273.93583068 329.04966716 -278 345 C-278.22558594 345.83144531 -278.45117188 346.66289062 -278.68359375 347.51953125 C-284.07800241 371.14332092 -278.36823317 395.72510669 -266.640625 416.43359375 C-263.77812793 420.91135703 -260.42026561 424.94276184 -257 429 C-256.3296875 429.85335937 -255.659375 430.70671875 -254.96875 431.5859375 C-241.80449989 447.72781561 -218.24898398 458.48076021 -198 461 C-168.06086704 462.65512945 -142.9758496 455.85198053 -120.28125 435.5703125 C-104.01212458 420.1694831 -91.94706665 397.72959952 -91 375 C-90.9484375 373.865625 -90.896875 372.73125 -90.84375 371.5625 C-90.07659753 346.22427817 -98.44548551 323.38427891 -114.3359375 303.6953125 C-115.15964844 302.85613281 -115.15964844 302.85613281 -116 302 C-116.66 302 -117.32 302 -118 302 C-118.36158203 301.12601562 -118.36158203 301.12601562 -118.73046875 300.234375 C-126.24651414 287.00613511 -147.42379691 279.00167183 -161.5234375 275 C-167.63138641 273.51928511 -173.72211355 272.36732314 -180 272 C-181.15242188 271.92072266 -181.15242188 271.92072266 -182.328125 271.83984375 C-210.10114365 270.8601207 -236.96262639 282.69275846 -255.75 302.9375 Z " fill="#a0a0a0" transform="translate(343,61)"/>
<path d="" fill="#a0a0a0" transform="translate(0,0)"/>
</svg>
